<svg width="594" height="268" viewBox="0 0 594 268" fill="none" xmlns="http://www.w3.org/2000/svg">
<mask id="mask0_1_379" style="mask-type:luminance" maskUnits="userSpaceOnUse" x="0" y="0" width="594" height="268">
<path d="M585.12 0H8.8804C3.97589 0 0 5.13562 0 11.4707V256.529C0 262.864 3.97589 268 8.8804 268H585.12C590.024 268 594 262.864 594 256.529V11.4707C594 5.13562 590.024 0 585.12 0Z" fill="white"/>
</mask>
<g mask="url(#mask0_1_379)">
<path d="M671.033 -32.8727H-79.3594C-87.4519 -32.8727 -94.0121 -26.296 -94.0121 -18.1833V126.04C-94.0121 134.153 -87.4519 140.73 -79.3594 140.73H671.033C679.125 140.73 685.685 134.153 685.685 126.04V-18.1833C685.685 -26.296 679.125 -32.8727 671.033 -32.8727Z" stroke="#A3BAB1" stroke-opacity="0.5" stroke-width="0.63"/>
<g filter="url(#filter0_d_1_379)">
<path d="M120.392 103.357H68.7582C62.2643 103.357 57 108.634 57 115.144V166.907C57 173.417 62.2643 178.695 68.7582 178.695H120.392C126.885 178.695 132.15 173.417 132.15 166.907V115.144C132.15 108.634 126.885 103.357 120.392 103.357Z" fill="url(#paint0_linear_1_379)"/>
<path d="M120.392 103.613H68.7587C62.406 103.613 57.2562 108.775 57.2562 115.144V166.907C57.2562 173.275 62.406 178.438 68.7587 178.438H120.392C126.745 178.438 131.895 173.275 131.895 166.907V115.144C131.895 108.775 126.745 103.613 120.392 103.613Z" fill="white" stroke="#A3BAB1" stroke-opacity="0.5" stroke-width="0.627572"/>
</g>
<path d="M107.741 116.441H82.2072C75.7133 116.441 70.449 121.718 70.449 128.228V153.826C70.449 160.336 75.7133 165.613 82.2072 165.613H107.741C114.235 165.613 119.499 160.336 119.499 153.826V128.228C119.499 121.718 114.235 116.441 107.741 116.441Z" fill="white"/>
<path d="M104.13 128.174L96.6476 139.68C94.8737 142.412 90.6461 141.401 90.4986 138.211L90.3266 134.494C90.2788 133.461 89.7381 132.525 88.8677 131.967L85.7343 129.959C83.0457 128.237 84.2891 124.079 87.5373 123.9L101.242 123.173C103.939 123.03 105.602 125.91 104.13 128.174Z" stroke="#00BC74" stroke-width="2" stroke-linecap="round" stroke-linejoin="round"/>
<path d="M72.08 154.6C72.656 154.6 73.16 154.72 73.604 154.936C74.036 155.152 74.384 155.464 74.624 155.872C74.864 156.28 74.984 156.748 74.984 157.276C74.984 157.816 74.864 158.284 74.624 158.692C74.384 159.1 74.036 159.412 73.604 159.628C73.16 159.844 72.656 159.952 72.08 159.952H70.148V163H68.768V154.6H72.08ZM70.148 158.752H71.96C72.452 158.752 72.848 158.62 73.136 158.356C73.424 158.092 73.58 157.732 73.58 157.276C73.58 156.82 73.436 156.46 73.148 156.196C72.86 155.932 72.464 155.8 71.972 155.8H70.148V158.752ZM81.4301 161.872V163H80.7461C80.3381 163 80.0501 162.916 79.8821 162.748C79.7021 162.58 79.6181 162.34 79.6181 162.016C79.1501 162.724 78.4781 163.072 77.5901 163.072C76.8941 163.072 76.3421 162.916 75.9341 162.592C75.5141 162.28 75.3101 161.836 75.3101 161.272C75.3101 160.648 75.5261 160.156 75.9821 159.82C76.4261 159.484 77.0741 159.304 77.9381 159.304H79.4861V158.932C79.4861 158.596 79.3661 158.32 79.1261 158.128C78.8861 157.936 78.5501 157.828 78.1301 157.828C77.7461 157.828 77.4341 157.912 77.1941 158.08C76.9541 158.248 76.8101 158.464 76.7621 158.728H75.4901C75.5501 158.116 75.8261 157.636 76.3061 157.3C76.7861 156.964 77.4101 156.784 78.1901 156.784C79.0061 156.784 79.6421 156.976 80.0981 157.36C80.5421 157.744 80.7701 158.296 80.7701 159.016V161.44C80.7701 161.728 80.9021 161.872 81.1781 161.872H81.4301ZM79.4861 160.264H77.8781C77.4701 160.264 77.1701 160.348 76.9541 160.504C76.7381 160.66 76.6301 160.888 76.6301 161.188C76.6301 161.452 76.7261 161.668 76.9301 161.824C77.1341 161.992 77.4101 162.064 77.7701 162.064C78.2981 162.064 78.7181 161.92 79.0181 161.632C79.3181 161.344 79.4741 160.96 79.4861 160.48V160.264ZM82.7165 156.856L84.4325 161.596L86.1005 156.856H87.4805L84.6965 163.96C84.5525 164.332 84.4205 164.62 84.3005 164.812C84.1805 165.004 84.0245 165.16 83.8565 165.256C83.6765 165.352 83.4365 165.4 83.1485 165.4H81.7565V164.26H82.6685C82.9085 164.26 83.0885 164.224 83.1845 164.152C83.2805 164.08 83.3765 163.9 83.4845 163.636L83.7365 163.048L81.3365 156.856H82.7165ZM96.872 157.444C97.292 157.876 97.508 158.572 97.508 159.532V163H96.212V159.544C96.212 159.016 96.104 158.608 95.888 158.32C95.672 158.044 95.348 157.9 94.928 157.9C94.472 157.9 94.124 158.068 93.86 158.38C93.596 158.692 93.476 159.124 93.476 159.676V163H92.168V159.544C92.168 159.004 92.048 158.596 91.832 158.32C91.616 158.044 91.292 157.9 90.872 157.9C90.428 157.9 90.08 158.068 89.816 158.392C89.552 158.728 89.432 159.16 89.432 159.712V163H88.136V156.856H89.264L89.408 157.66C89.84 157.084 90.44 156.796 91.208 156.784C91.64 156.784 92.012 156.88 92.348 157.06C92.672 157.252 92.924 157.528 93.104 157.9C93.32 157.552 93.596 157.276 93.956 157.084C94.304 156.892 94.724 156.784 95.228 156.784C95.9 156.784 96.44 157.012 96.872 157.444ZM98.8269 158.284C99.0789 157.804 99.4269 157.444 99.8829 157.18C100.339 156.916 100.855 156.784 101.443 156.784C102.031 156.784 102.547 156.904 103.003 157.144C103.459 157.384 103.807 157.732 104.071 158.164C104.335 158.608 104.467 159.124 104.479 159.712C104.479 159.88 104.467 160.036 104.443 160.204H99.8109V160.276C99.8349 160.816 100.003 161.236 100.315 161.548C100.615 161.86 101.023 162.016 101.527 162.016C101.923 162.016 102.259 161.932 102.535 161.74C102.799 161.548 102.979 161.284 103.075 160.936H104.371C104.251 161.56 103.951 162.076 103.459 162.472C102.967 162.88 102.355 163.072 101.623 163.072C100.975 163.072 100.423 162.952 99.9429 162.688C99.4629 162.424 99.1029 162.064 98.8389 161.584C98.5749 161.116 98.4549 160.564 98.4549 159.94C98.4549 159.316 98.5749 158.764 98.8269 158.284ZM103.159 159.256C103.099 158.812 102.919 158.464 102.619 158.212C102.319 157.96 101.947 157.828 101.491 157.828C101.059 157.828 100.699 157.96 100.387 158.224C100.075 158.488 99.9069 158.824 99.8589 159.256H103.159ZM110.543 157.456C110.999 157.912 111.239 158.632 111.239 159.616V163H109.931V159.688C109.931 159.112 109.799 158.668 109.559 158.356C109.307 158.056 108.947 157.9 108.467 157.9C107.951 157.9 107.543 158.08 107.255 158.44C106.967 158.8 106.823 159.28 106.823 159.904V163H105.527V156.856H106.655L106.799 157.66C107.255 157.084 107.915 156.784 108.767 156.784C109.487 156.784 110.087 157.012 110.543 157.456ZM112.813 157.996H111.745V156.856H112.813V155.14H114.121V156.856H115.597V157.996H114.121V161.2C114.121 161.44 114.169 161.62 114.265 161.716C114.361 161.812 114.517 161.86 114.757 161.86H115.741V163H114.493C113.905 163 113.473 162.868 113.209 162.592C112.945 162.328 112.813 161.908 112.813 161.332V157.996ZM117.469 160.972C117.493 161.296 117.637 161.56 117.913 161.764C118.189 161.968 118.549 162.064 118.993 162.064C119.377 162.064 119.701 161.992 119.941 161.848C120.181 161.704 120.313 161.5 120.313 161.248C120.313 161.044 120.253 160.888 120.145 160.78C120.025 160.684 119.881 160.612 119.689 160.564C119.497 160.516 119.209 160.468 118.825 160.42C118.285 160.36 117.841 160.276 117.493 160.168C117.145 160.06 116.869 159.892 116.653 159.652C116.437 159.412 116.341 159.1 116.341 158.692C116.341 158.32 116.437 157.984 116.653 157.696C116.869 157.408 117.157 157.18 117.529 157.012C117.901 156.856 118.321 156.772 118.801 156.772C119.569 156.772 120.205 156.952 120.685 157.288C121.165 157.636 121.429 158.116 121.477 158.74H120.217C120.181 158.464 120.037 158.236 119.797 158.056C119.545 157.876 119.233 157.78 118.861 157.78C118.477 157.78 118.177 157.852 117.949 157.996C117.709 158.14 117.601 158.344 117.601 158.584C117.601 158.776 117.649 158.908 117.769 159.004C117.889 159.1 118.033 159.16 118.213 159.196C118.381 159.232 118.669 159.268 119.065 159.316C119.593 159.376 120.037 159.46 120.397 159.58C120.757 159.7 121.045 159.88 121.261 160.132C121.477 160.384 121.585 160.72 121.585 161.152C121.585 161.536 121.465 161.884 121.249 162.172C121.021 162.46 120.709 162.688 120.325 162.844C119.929 163 119.485 163.072 119.005 163.072C118.177 163.072 117.505 162.892 117.001 162.52C116.497 162.148 116.233 161.632 116.221 160.972H117.469Z" fill="#00100B"/>
<g filter="url(#filter1_d_1_379)">
<path d="M216.392 103.352H164.758C158.264 103.352 153 108.629 153 115.14V166.902C153 173.412 158.264 178.69 164.758 178.69H216.392C222.885 178.69 228.15 173.412 228.15 166.902V115.14C228.15 108.629 222.885 103.352 216.392 103.352Z" fill="url(#paint1_linear_1_379)"/>
<path d="M216.392 103.608H164.758C158.406 103.608 153.256 108.771 153.256 115.139V166.902C153.256 173.271 158.406 178.433 164.758 178.433H216.392C222.745 178.433 227.894 173.271 227.894 166.902V115.139C227.894 108.771 222.745 103.608 216.392 103.608Z" fill="white" stroke="#A3BAB1" stroke-opacity="0.5" stroke-width="0.627572"/>
</g>
<path d="M203.339 116.435H177.806C171.312 116.435 166.047 121.712 166.047 128.223V153.82C166.047 160.33 171.312 165.608 177.806 165.608H203.339C209.833 165.608 215.097 160.33 215.097 153.82V128.223C215.097 121.712 209.833 116.435 203.339 116.435Z" fill="white"/>
<path d="M187.072 136.835C187.852 135.998 189.041 136.065 189.726 136.978L190.687 138.262C191.457 139.28 192.703 139.28 193.473 138.262L194.434 136.978C195.119 136.065 196.308 135.998 197.088 136.835C198.781 138.642 200.16 138.043 200.16 135.513V124.794C200.169 120.961 199.275 120 195.68 120H188.489C184.894 120 184 120.961 184 124.794V135.504C184 138.043 185.389 138.633 187.072 136.835Z" stroke="#00BC74" stroke-width="1.5" stroke-linecap="round" stroke-linejoin="round"/>
<path d="M188.28 124.756H195.889" stroke="#00BC74" stroke-width="1.5" stroke-linecap="round" stroke-linejoin="round"/>
<path d="M189.231 128.56H194.938" stroke="#00BC74" stroke-width="1.5" stroke-linecap="round" stroke-linejoin="round"/>
<path d="M184.106 154.6C185.018 154.6 185.738 154.792 186.242 155.176C186.746 155.56 187.01 156.1 187.01 156.784C187.01 157.288 186.866 157.708 186.602 158.032C186.338 158.356 185.954 158.572 185.45 158.68C186.698 158.896 187.334 159.556 187.334 160.66C187.334 161.392 187.058 161.968 186.518 162.376C185.978 162.796 185.21 163 184.214 163H181.022V154.6H184.106ZM182.402 158.164H184.142C184.61 158.164 184.97 158.056 185.234 157.84C185.498 157.624 185.63 157.336 185.63 156.952C185.63 156.58 185.498 156.292 185.234 156.076C184.97 155.86 184.61 155.752 184.142 155.752H182.402V158.164ZM182.402 161.836H184.226C184.766 161.836 185.186 161.728 185.474 161.512C185.762 161.296 185.918 160.984 185.918 160.588C185.918 160.18 185.762 159.868 185.474 159.64C185.174 159.424 184.754 159.304 184.226 159.304H182.402V161.836ZM189.696 154.624C189.84 154.768 189.924 154.96 189.924 155.176C189.924 155.404 189.84 155.596 189.696 155.74C189.54 155.884 189.348 155.956 189.132 155.956C188.904 155.956 188.712 155.884 188.568 155.74C188.412 155.596 188.34 155.404 188.34 155.176C188.34 154.96 188.412 154.768 188.568 154.624C188.712 154.48 188.904 154.396 189.132 154.396C189.348 154.396 189.54 154.48 189.696 154.624ZM188.484 156.856H189.78V163H188.484V156.856ZM191.05 154.6H192.346V163H191.05V154.6ZM193.616 154.6H194.912V163H193.616V154.6ZM197.215 160.972C197.239 161.296 197.383 161.56 197.659 161.764C197.935 161.968 198.295 162.064 198.739 162.064C199.123 162.064 199.447 161.992 199.687 161.848C199.927 161.704 200.059 161.5 200.059 161.248C200.059 161.044 199.999 160.888 199.891 160.78C199.771 160.684 199.627 160.612 199.435 160.564C199.243 160.516 198.955 160.468 198.571 160.42C198.031 160.36 197.587 160.276 197.239 160.168C196.891 160.06 196.615 159.892 196.399 159.652C196.183 159.412 196.087 159.1 196.087 158.692C196.087 158.32 196.183 157.984 196.399 157.696C196.615 157.408 196.903 157.18 197.275 157.012C197.647 156.856 198.067 156.772 198.547 156.772C199.315 156.772 199.951 156.952 200.431 157.288C200.911 157.636 201.175 158.116 201.223 158.74H199.963C199.927 158.464 199.783 158.236 199.543 158.056C199.291 157.876 198.979 157.78 198.607 157.78C198.223 157.78 197.923 157.852 197.695 157.996C197.455 158.14 197.347 158.344 197.347 158.584C197.347 158.776 197.395 158.908 197.515 159.004C197.635 159.1 197.779 159.16 197.959 159.196C198.127 159.232 198.415 159.268 198.811 159.316C199.339 159.376 199.783 159.46 200.143 159.58C200.503 159.7 200.791 159.88 201.007 160.132C201.223 160.384 201.331 160.72 201.331 161.152C201.331 161.536 201.211 161.884 200.995 162.172C200.767 162.46 200.455 162.688 200.071 162.844C199.675 163 199.231 163.072 198.751 163.072C197.923 163.072 197.251 162.892 196.747 162.52C196.243 162.148 195.979 161.632 195.967 160.972H197.215Z" fill="#00100B"/>
<g filter="url(#filter2_d_1_379)">
<path d="M331.818 93.1079H260.758C254.264 93.1079 249 98.3854 249 104.896V176.134C249 182.644 254.264 187.922 260.758 187.922H331.818C338.312 187.922 343.577 182.644 343.577 176.134V104.896C343.577 98.3854 338.312 93.1079 331.818 93.1079Z" fill="white"/>
<path d="M331.817 93.3647H260.757C254.404 93.3647 249.255 98.5275 249.255 104.896V176.134C249.255 182.503 254.404 187.666 260.757 187.666H331.817C338.17 187.666 343.32 182.503 343.32 176.134V104.896C343.32 98.5275 338.17 93.3647 331.817 93.3647Z" fill="white" stroke="#00BC74" stroke-opacity="0.5" stroke-width="0.627572"/>
</g>
<path d="M315.056 109.508H276.715C270.221 109.508 264.957 114.785 264.957 121.295V159.733C264.957 166.243 270.221 171.521 276.715 171.521H315.056C321.55 171.521 326.815 166.243 326.815 159.733V121.295C326.815 114.785 321.55 109.508 315.056 109.508Z" fill="white"/>
<path d="M306.091 127.273H303.364V120.909C303.364 120.74 303.317 120.575 303.228 120.431C303.139 120.288 303.012 120.171 302.861 120.096C302.71 120.02 302.541 119.988 302.373 120.004C302.205 120.019 302.044 120.08 301.909 120.182L300.027 121.591C297.191 119.473 298 119.473 295.182 121.591C292.355 119.473 293.155 119.473 290.327 121.591L288.455 120.182C288.319 120.08 288.159 120.019 287.991 120.004C287.823 119.988 287.654 120.02 287.503 120.096C287.351 120.171 287.225 120.288 287.136 120.431C287.047 120.575 287 120.74 287 120.909V137.273C287 137.996 287.287 138.69 287.799 139.201C288.31 139.713 289.004 140 289.727 140H304.273C304.996 140 305.69 139.713 306.201 139.201C306.713 138.69 307 137.996 307 137.273V128.182C307 127.941 306.904 127.709 306.734 127.539C306.563 127.368 306.332 127.273 306.091 127.273ZM289.727 138.182C289.486 138.182 289.255 138.086 289.084 137.916C288.914 137.745 288.818 137.514 288.818 137.273V122.727C290.636 124.064 290.1 124.036 292.755 122.045C295.573 124.164 294.773 124.164 297.6 122.045C300.327 124.082 299.8 124.036 301.545 122.727C301.545 137.955 301.473 137.545 301.7 138.182H289.727ZM305.182 137.273C305.182 137.514 305.086 137.745 304.916 137.916C304.745 138.086 304.514 138.182 304.273 138.182C304.032 138.182 303.8 138.086 303.63 137.916C303.459 137.745 303.364 137.514 303.364 137.273V129.091H305.182V137.273Z" fill="#00BC74"/>
<path d="M291.545 128.182H294.273C294.514 128.182 294.745 128.086 294.916 127.916C295.086 127.745 295.182 127.514 295.182 127.273C295.182 127.032 295.086 126.8 294.916 126.63C294.745 126.459 294.514 126.364 294.273 126.364H291.545C291.304 126.364 291.073 126.459 290.903 126.63C290.732 126.8 290.636 127.032 290.636 127.273C290.636 127.514 290.732 127.745 290.903 127.916C291.073 128.086 291.304 128.182 291.545 128.182Z" fill="#00BC74"/>
<path d="M298.818 130H291.545C291.304 130 291.073 130.096 290.903 130.266C290.732 130.437 290.636 130.668 290.636 130.909C290.636 131.15 290.732 131.381 290.903 131.552C291.073 131.722 291.304 131.818 291.545 131.818H298.818C299.059 131.818 299.29 131.722 299.461 131.552C299.631 131.381 299.727 131.15 299.727 130.909C299.727 130.668 299.631 130.437 299.461 130.266C299.29 130.096 299.059 130 298.818 130Z" fill="#00BC74"/>
<path d="M298.818 133.636H291.545C291.304 133.636 291.073 133.732 290.903 133.903C290.732 134.073 290.636 134.304 290.636 134.545C290.636 134.787 290.732 135.018 290.903 135.188C291.073 135.359 291.304 135.455 291.545 135.455H298.818C299.059 135.455 299.29 135.359 299.461 135.188C299.631 135.018 299.727 134.787 299.727 134.545C299.727 134.304 299.631 134.073 299.461 133.903C299.29 133.732 299.059 133.636 298.818 133.636Z" fill="#00BC74"/>
<path d="M271.975 154.6H273.355V163H271.975V154.6ZM279.777 157.456C280.233 157.912 280.473 158.632 280.473 159.616V163H279.165V159.688C279.165 159.112 279.033 158.668 278.793 158.356C278.541 158.056 278.181 157.9 277.701 157.9C277.185 157.9 276.777 158.08 276.489 158.44C276.201 158.8 276.057 159.28 276.057 159.904V163H274.761V156.856H275.889L276.033 157.66C276.489 157.084 277.149 156.784 278.001 156.784C278.721 156.784 279.321 157.012 279.777 157.456ZM280.852 156.856H282.244L283.936 161.608L285.604 156.856H286.972L284.704 163H283.12L280.852 156.856ZM288.654 162.688C288.174 162.424 287.814 162.064 287.55 161.584C287.286 161.104 287.166 160.552 287.166 159.928C287.166 159.316 287.286 158.776 287.55 158.296C287.814 157.816 288.174 157.444 288.654 157.18C289.134 156.916 289.674 156.784 290.298 156.784C290.91 156.784 291.45 156.916 291.93 157.18C292.41 157.444 292.77 157.816 293.034 158.296C293.298 158.776 293.43 159.316 293.43 159.928C293.43 160.552 293.298 161.104 293.034 161.584C292.77 162.064 292.41 162.424 291.93 162.688C291.45 162.952 290.91 163.072 290.298 163.072C289.674 163.072 289.134 162.952 288.654 162.688ZM291.606 161.404C291.942 161.02 292.11 160.528 292.11 159.928C292.11 159.328 291.942 158.848 291.606 158.464C291.27 158.08 290.838 157.888 290.298 157.888C289.746 157.888 289.314 158.08 288.99 158.464C288.654 158.848 288.498 159.328 288.498 159.928C288.498 160.528 288.654 161.02 288.99 161.404C289.314 161.788 289.746 161.968 290.298 161.968C290.838 161.968 291.27 161.788 291.606 161.404ZM295.684 154.624C295.828 154.768 295.912 154.96 295.912 155.176C295.912 155.404 295.828 155.596 295.684 155.74C295.528 155.884 295.336 155.956 295.12 155.956C294.892 155.956 294.7 155.884 294.556 155.74C294.4 155.596 294.328 155.404 294.328 155.176C294.328 154.96 294.4 154.768 294.556 154.624C294.7 154.48 294.892 154.396 295.12 154.396C295.336 154.396 295.528 154.48 295.684 154.624ZM294.472 156.856H295.768V163H294.472V156.856ZM301.778 162.472C301.274 162.88 300.638 163.072 299.87 163.072C299.258 163.072 298.718 162.952 298.262 162.688C297.794 162.424 297.434 162.052 297.182 161.572C296.93 161.092 296.81 160.54 296.81 159.916C296.81 159.292 296.93 158.752 297.194 158.272C297.446 157.804 297.806 157.444 298.274 157.18C298.742 156.916 299.282 156.784 299.906 156.784C300.674 156.784 301.298 156.988 301.79 157.396C302.27 157.804 302.582 158.344 302.702 159.04H301.37C301.274 158.692 301.106 158.416 300.842 158.2C300.578 157.996 300.254 157.888 299.87 157.888C299.342 157.888 298.922 158.08 298.61 158.452C298.298 158.836 298.142 159.316 298.142 159.916C298.142 160.528 298.298 161.02 298.61 161.404C298.922 161.788 299.342 161.968 299.87 161.968C300.266 161.968 300.602 161.872 300.866 161.656C301.13 161.44 301.298 161.152 301.382 160.792H302.702C302.582 161.512 302.27 162.064 301.778 162.472ZM304.954 154.624C305.098 154.768 305.182 154.96 305.182 155.176C305.182 155.404 305.098 155.596 304.954 155.74C304.798 155.884 304.606 155.956 304.39 155.956C304.162 155.956 303.97 155.884 303.826 155.74C303.67 155.596 303.598 155.404 303.598 155.176C303.598 154.96 303.67 154.768 303.826 154.624C303.97 154.48 304.162 154.396 304.39 154.396C304.606 154.396 304.798 154.48 304.954 154.624ZM303.742 156.856H305.038V163H303.742V156.856ZM311.324 157.456C311.78 157.912 312.02 158.632 312.02 159.616V163H310.712V159.688C310.712 159.112 310.58 158.668 310.34 158.356C310.088 158.056 309.728 157.9 309.248 157.9C308.732 157.9 308.324 158.08 308.036 158.44C307.748 158.8 307.604 159.28 307.604 159.904V163H306.308V156.856H307.436L307.58 157.66C308.036 157.084 308.696 156.784 309.548 156.784C310.268 156.784 310.868 157.012 311.324 157.456ZM319.163 156.856V162.748C319.163 163.612 318.899 164.284 318.395 164.764C317.879 165.244 317.087 165.472 316.019 165.472C315.179 165.472 314.507 165.292 313.991 164.92C313.463 164.548 313.175 164.02 313.127 163.336H314.447C314.519 163.684 314.711 163.948 314.999 164.14C315.287 164.332 315.659 164.416 316.115 164.416C317.291 164.416 317.879 163.852 317.879 162.7V162.016C317.423 162.688 316.763 163.024 315.875 163.024C315.311 163.024 314.807 162.904 314.375 162.652C313.931 162.4 313.583 162.04 313.343 161.572C313.091 161.104 312.971 160.552 312.971 159.904C312.971 159.292 313.091 158.752 313.343 158.272C313.595 157.804 313.943 157.444 314.387 157.18C314.819 156.916 315.323 156.784 315.875 156.784C316.331 156.784 316.739 156.88 317.075 157.06C317.411 157.252 317.675 157.504 317.891 157.816L318.035 156.856H319.163ZM317.387 161.38C317.711 161.008 317.879 160.528 317.879 159.928C317.879 159.328 317.711 158.836 317.387 158.452C317.051 158.068 316.619 157.876 316.091 157.876C315.551 157.876 315.119 158.068 314.795 158.44C314.459 158.824 314.303 159.304 314.303 159.904C314.303 160.504 314.459 160.996 314.795 161.368C315.119 161.752 315.551 161.932 316.091 161.932C316.619 161.932 317.051 161.752 317.387 161.38Z" fill="#00100B"/>
<g filter="url(#filter3_d_1_379)">
<path d="M427.392 103.352H375.758C369.264 103.352 364 108.629 364 115.14V166.902C364 173.412 369.264 178.69 375.758 178.69H427.392C433.885 178.69 439.15 173.412 439.15 166.902V115.14C439.15 108.629 433.885 103.352 427.392 103.352Z" fill="white"/>
<path d="M427.392 103.608H375.758C369.406 103.608 364.256 108.771 364.256 115.139V166.902C364.256 173.271 369.406 178.433 375.758 178.433H427.392C433.745 178.433 438.894 173.271 438.894 166.902V115.139C438.894 108.771 433.745 103.608 427.392 103.608Z" stroke="#A3BAB1" stroke-opacity="0.5" stroke-width="0.627572"/>
</g>
<path d="M414.204 116.676H388.67C382.177 116.676 376.912 121.953 376.912 128.463V154.061C376.912 160.571 382.177 165.849 388.67 165.849H414.204C420.698 165.849 425.962 160.571 425.962 154.061V128.463C425.962 121.953 420.698 116.676 414.204 116.676Z" fill="white"/>
<g clip-path="url(#clip0_1_379)">
<path d="M392 120.624C392 120.458 392.066 120.299 392.183 120.182C392.3 120.065 392.459 119.999 392.625 119.999H396.375C396.541 119.999 396.7 120.065 396.817 120.182C396.934 120.299 397 120.458 397 120.624C397 120.79 396.934 120.949 396.817 121.066C396.7 121.183 396.541 121.249 396.375 121.249H393.25V124.374C393.25 124.54 393.184 124.699 393.067 124.816C392.95 124.933 392.791 124.999 392.625 124.999C392.459 124.999 392.3 124.933 392.183 124.816C392.066 124.699 392 124.54 392 124.374V120.624ZM407 120.624C407 120.458 407.066 120.299 407.183 120.182C407.3 120.065 407.459 119.999 407.625 119.999H411.375C411.541 119.999 411.7 120.065 411.817 120.182C411.934 120.299 412 120.458 412 120.624V124.374C412 124.54 411.934 124.699 411.817 124.816C411.7 124.933 411.541 124.999 411.375 124.999C411.209 124.999 411.05 124.933 410.933 124.816C410.816 124.699 410.75 124.54 410.75 124.374V121.249H407.625C407.459 121.249 407.3 121.183 407.183 121.066C407.066 120.949 407 120.79 407 120.624ZM392.625 134.999C392.791 134.999 392.95 135.065 393.067 135.182C393.184 135.299 393.25 135.458 393.25 135.624V138.749H396.375C396.541 138.749 396.7 138.815 396.817 138.932C396.934 139.049 397 139.208 397 139.374C397 139.54 396.934 139.699 396.817 139.816C396.7 139.933 396.541 139.999 396.375 139.999H392.625C392.459 139.999 392.3 139.933 392.183 139.816C392.066 139.699 392 139.54 392 139.374V135.624C392 135.458 392.066 135.299 392.183 135.182C392.3 135.065 392.459 134.999 392.625 134.999ZM411.375 134.999C411.541 134.999 411.7 135.065 411.817 135.182C411.934 135.299 412 135.458 412 135.624V139.374C412 139.54 411.934 139.699 411.817 139.816C411.7 139.933 411.541 139.999 411.375 139.999H407.625C407.459 139.999 407.3 139.933 407.183 139.816C407.066 139.699 407 139.54 407 139.374C407 139.208 407.066 139.049 407.183 138.932C407.3 138.815 407.459 138.749 407.625 138.749H410.75V135.624C410.75 135.458 410.816 135.299 410.933 135.182C411.05 135.065 411.209 134.999 411.375 134.999ZM397 124.999H398.25V126.249H397V124.999Z" fill="#00BC74"/>
<path d="M400.75 122.499H394.5V128.749H400.75V122.499ZM395.75 123.749H399.5V127.499H395.75V123.749ZM398.25 133.749H397V134.999H398.25V133.749Z" fill="#00BC74"/>
<path d="M400.75 131.246H394.5V137.496H400.75V131.246ZM395.75 132.496H399.5V136.246H395.75V132.496ZM405.75 124.996H407V126.246H405.75V124.996Z" fill="#00BC74"/>
<path d="M403.249 122.499H409.499V128.749H403.249V122.499ZM404.499 123.749V127.499H408.249V123.749H404.499ZM401.999 129.999V132.499H403.249V133.749H401.999V134.999H404.499V132.499H405.749V134.999H406.999V133.749H409.499V132.499H405.749V129.999H401.999ZM404.499 132.499H403.249V131.249H404.499V132.499ZM409.499 134.999H408.249V136.249H405.749V137.499H409.499V134.999ZM404.499 137.499V136.249H401.999V137.499H404.499Z" fill="#00BC74"/>
<path d="M406.999 131.247H409.499V129.997H406.999V131.247Z" fill="#00BC74"/>
</g>
<path d="M390.448 161.788V163H389.632C389.296 163 389.044 162.964 388.852 162.868C388.66 162.772 388.492 162.628 388.336 162.412L388.3 162.364C387.628 162.844 386.836 163.072 385.936 163.072C385.144 163.072 384.436 162.892 383.812 162.52C383.188 162.16 382.708 161.644 382.372 160.996C382.024 160.348 381.856 159.616 381.856 158.8C381.856 157.984 382.024 157.252 382.372 156.604C382.708 155.956 383.188 155.452 383.812 155.08C384.436 154.72 385.144 154.528 385.936 154.528C386.728 154.528 387.424 154.72 388.048 155.08C388.672 155.452 389.152 155.956 389.5 156.604C389.836 157.252 390.016 157.984 390.016 158.8C390.016 159.328 389.932 159.832 389.788 160.3C389.632 160.768 389.416 161.188 389.14 161.56C389.284 161.716 389.476 161.788 389.716 161.788H390.448ZM387.508 161.344L387.328 161.104C387.22 160.96 387.112 160.864 387.016 160.792C386.908 160.732 386.788 160.696 386.656 160.696H385.912V159.496H386.812C387.1 159.496 387.34 159.544 387.508 159.64C387.676 159.736 387.844 159.88 388 160.084L388.252 160.408C388.48 159.952 388.6 159.412 388.6 158.8C388.6 158.224 388.48 157.696 388.264 157.228C388.036 156.76 387.724 156.4 387.316 156.136C386.908 155.872 386.452 155.74 385.936 155.74C385.408 155.74 384.952 155.872 384.544 156.136C384.136 156.4 383.824 156.76 383.608 157.228C383.38 157.696 383.272 158.224 383.272 158.8C383.272 159.388 383.38 159.916 383.608 160.384C383.824 160.852 384.136 161.212 384.544 161.476C384.952 161.74 385.408 161.86 385.936 161.86C386.536 161.86 387.052 161.692 387.508 161.344ZM394.598 154.6C395.174 154.6 395.69 154.72 396.134 154.936C396.566 155.152 396.914 155.464 397.154 155.872C397.394 156.28 397.526 156.748 397.526 157.276C397.526 157.84 397.37 158.332 397.082 158.752C396.782 159.184 396.386 159.484 395.894 159.652L397.67 163H396.134L394.538 159.952H392.666V163H391.286V154.6H394.598ZM392.666 158.752H394.49C394.982 158.752 395.378 158.62 395.666 158.356C395.954 158.092 396.11 157.732 396.11 157.276C396.11 156.832 395.954 156.472 395.666 156.208C395.378 155.944 394.982 155.8 394.49 155.8H392.666V158.752ZM405.168 154.6C405.744 154.6 406.248 154.72 406.692 154.936C407.124 155.152 407.472 155.464 407.712 155.872C407.952 156.28 408.072 156.748 408.072 157.276C408.072 157.816 407.952 158.284 407.712 158.692C407.472 159.1 407.124 159.412 406.692 159.628C406.248 159.844 405.744 159.952 405.168 159.952H403.236V163H401.856V154.6H405.168ZM403.236 158.752H405.048C405.54 158.752 405.936 158.62 406.224 158.356C406.512 158.092 406.668 157.732 406.668 157.276C406.668 156.82 406.524 156.46 406.236 156.196C405.948 155.932 405.552 155.8 405.06 155.8H403.236V158.752ZM414.518 161.872V163H413.834C413.426 163 413.138 162.916 412.97 162.748C412.79 162.58 412.706 162.34 412.706 162.016C412.238 162.724 411.566 163.072 410.678 163.072C409.982 163.072 409.43 162.916 409.022 162.592C408.602 162.28 408.398 161.836 408.398 161.272C408.398 160.648 408.614 160.156 409.07 159.82C409.514 159.484 410.162 159.304 411.026 159.304H412.574V158.932C412.574 158.596 412.454 158.32 412.214 158.128C411.974 157.936 411.638 157.828 411.218 157.828C410.834 157.828 410.522 157.912 410.282 158.08C410.042 158.248 409.898 158.464 409.85 158.728H408.578C408.638 158.116 408.914 157.636 409.394 157.3C409.874 156.964 410.498 156.784 411.278 156.784C412.094 156.784 412.73 156.976 413.186 157.36C413.63 157.744 413.858 158.296 413.858 159.016V161.44C413.858 161.728 413.99 161.872 414.266 161.872H414.518ZM412.574 160.264H410.966C410.558 160.264 410.258 160.348 410.042 160.504C409.826 160.66 409.718 160.888 409.718 161.188C409.718 161.452 409.814 161.668 410.018 161.824C410.222 161.992 410.498 162.064 410.858 162.064C411.386 162.064 411.806 161.92 412.106 161.632C412.406 161.344 412.562 160.96 412.574 160.48V160.264ZM415.804 156.856L417.52 161.596L419.188 156.856H420.568L417.784 163.96C417.64 164.332 417.508 164.62 417.388 164.812C417.268 165.004 417.112 165.16 416.944 165.256C416.764 165.352 416.524 165.4 416.236 165.4H414.844V164.26H415.756C415.996 164.26 416.176 164.224 416.272 164.152C416.368 164.08 416.464 163.9 416.572 163.636L416.824 163.048L414.424 156.856H415.804Z" fill="#00100B"/>
<g filter="url(#filter4_d_1_379)">
<path d="M522.392 103.352H470.758C464.264 103.352 459 108.629 459 115.14V166.902C459 173.412 464.264 178.69 470.758 178.69H522.392C528.885 178.69 534.15 173.412 534.15 166.902V115.14C534.15 108.629 528.885 103.352 522.392 103.352Z" fill="white"/>
<path d="M522.392 103.608H470.758C464.406 103.608 459.256 108.771 459.256 115.139V166.902C459.256 173.271 464.406 178.433 470.758 178.433H522.392C528.745 178.433 533.894 173.271 533.894 166.902V115.139C533.894 108.771 528.745 103.608 522.392 103.608Z" stroke="#A3BAB1" stroke-opacity="0.5" stroke-width="0.627572"/>
</g>
<path d="M509.562 116.435H484.029C477.535 116.435 472.27 121.712 472.27 128.223V153.82C472.27 160.33 477.535 165.608 484.029 165.608H509.562C516.056 165.608 521.32 160.33 521.32 153.82V128.223C521.32 121.712 516.056 116.435 509.562 116.435Z" fill="white"/>
<path d="M483.262 154.6C483.838 154.6 484.342 154.72 484.786 154.936C485.218 155.152 485.566 155.464 485.806 155.872C486.046 156.28 486.166 156.748 486.166 157.276C486.166 157.816 486.046 158.284 485.806 158.692C485.566 159.1 485.218 159.412 484.786 159.628C484.342 159.844 483.838 159.952 483.262 159.952H481.33V163H479.95V154.6H483.262ZM481.33 158.752H483.142C483.634 158.752 484.03 158.62 484.318 158.356C484.606 158.092 484.762 157.732 484.762 157.276C484.762 156.82 484.618 156.46 484.33 156.196C484.042 155.932 483.646 155.8 483.154 155.8H481.33V158.752ZM492.612 161.872V163H491.928C491.52 163 491.232 162.916 491.064 162.748C490.884 162.58 490.8 162.34 490.8 162.016C490.332 162.724 489.66 163.072 488.772 163.072C488.076 163.072 487.524 162.916 487.116 162.592C486.696 162.28 486.492 161.836 486.492 161.272C486.492 160.648 486.708 160.156 487.164 159.82C487.608 159.484 488.256 159.304 489.12 159.304H490.668V158.932C490.668 158.596 490.548 158.32 490.308 158.128C490.068 157.936 489.732 157.828 489.312 157.828C488.928 157.828 488.616 157.912 488.376 158.08C488.136 158.248 487.992 158.464 487.944 158.728H486.672C486.732 158.116 487.008 157.636 487.488 157.3C487.968 156.964 488.592 156.784 489.372 156.784C490.188 156.784 490.824 156.976 491.28 157.36C491.724 157.744 491.952 158.296 491.952 159.016V161.44C491.952 161.728 492.084 161.872 492.36 161.872H492.612ZM490.668 160.264H489.06C488.652 160.264 488.352 160.348 488.136 160.504C487.92 160.66 487.812 160.888 487.812 161.188C487.812 161.452 487.908 161.668 488.112 161.824C488.316 161.992 488.592 162.064 488.952 162.064C489.48 162.064 489.9 161.92 490.2 161.632C490.5 161.344 490.656 160.96 490.668 160.48V160.264ZM493.898 156.856L495.614 161.596L497.282 156.856H498.662L495.878 163.96C495.734 164.332 495.602 164.62 495.482 164.812C495.362 165.004 495.206 165.16 495.038 165.256C494.858 165.352 494.618 165.4 494.33 165.4H492.938V164.26H493.85C494.09 164.26 494.27 164.224 494.366 164.152C494.462 164.08 494.558 163.9 494.666 163.636L494.918 163.048L492.518 156.856H493.898ZM502.714 156.856V158.068H502.138C501.598 158.068 501.214 158.248 500.974 158.596C500.734 158.944 500.614 159.388 500.614 159.916V163H499.318V156.856H500.47L500.614 157.78C500.782 157.492 501.01 157.276 501.298 157.108C501.574 156.94 501.946 156.856 502.426 156.856H502.714ZM504.503 162.688C504.023 162.424 503.663 162.064 503.399 161.584C503.135 161.104 503.015 160.552 503.015 159.928C503.015 159.316 503.135 158.776 503.399 158.296C503.663 157.816 504.023 157.444 504.503 157.18C504.983 156.916 505.523 156.784 506.147 156.784C506.759 156.784 507.299 156.916 507.779 157.18C508.259 157.444 508.619 157.816 508.883 158.296C509.147 158.776 509.279 159.316 509.279 159.928C509.279 160.552 509.147 161.104 508.883 161.584C508.619 162.064 508.259 162.424 507.779 162.688C507.299 162.952 506.759 163.072 506.147 163.072C505.523 163.072 504.983 162.952 504.503 162.688ZM507.455 161.404C507.791 161.02 507.959 160.528 507.959 159.928C507.959 159.328 507.791 158.848 507.455 158.464C507.119 158.08 506.687 157.888 506.147 157.888C505.595 157.888 505.163 158.08 504.839 158.464C504.503 158.848 504.347 159.328 504.347 159.928C504.347 160.528 504.503 161.02 504.839 161.404C505.163 161.788 505.595 161.968 506.147 161.968C506.687 161.968 507.119 161.788 507.455 161.404ZM510.322 154.6H511.618V163H510.322V154.6ZM512.888 154.6H514.184V163H512.888V154.6Z" fill="#00100B"/>
<path d="M501.692 129.047C501.692 129.047 501.692 129.047 501.692 129.047C501.701 130.753 501.712 132.336 501.724 133.512C501.73 134.101 501.737 134.587 501.743 134.937C501.746 135.111 501.75 135.252 501.753 135.353C501.756 135.457 501.76 135.516 501.762 135.532L501.762 135.532C501.787 135.687 501.921 135.9 502.111 136.057L502.111 136.057L502.113 136.058C502.241 136.173 502.331 136.238 502.432 136.275C502.532 136.312 502.648 136.323 502.83 136.323C503.012 136.323 503.127 136.312 503.228 136.275C503.328 136.238 503.419 136.173 503.547 136.058L503.547 136.058L503.548 136.057C503.633 135.985 503.719 135.883 503.791 135.777C503.863 135.672 503.918 135.565 503.943 135.482C503.943 135.482 503.943 135.483 503.943 135.483L503.991 135.495C503.938 135.675 503.759 135.943 503.58 136.095C503.321 136.328 503.196 136.373 502.83 136.373C502.464 136.373 502.338 136.328 502.079 136.095C501.883 135.934 501.74 135.71 501.713 135.54L501.642 129.047L501.692 129.047ZM501.692 129.047L501.674 122.9M501.692 129.047L501.674 122.9M501.674 122.9H503.035H504.357M488.016 120.028C488.017 120.025 488.02 120.019 488.026 120.013C488.033 120.006 488.04 120.002 488.042 120.001C488.046 119.999 488.05 119.998 488.052 119.997C488.057 119.996 488.062 119.995 488.066 119.994C488.074 119.993 488.085 119.992 488.098 119.991C488.124 119.989 488.161 119.987 488.207 119.985C488.301 119.981 488.437 119.977 488.611 119.974C488.958 119.967 489.457 119.962 490.07 119.958C491.296 119.95 492.98 119.948 494.825 119.952H494.825L501.535 119.979L501.583 119.979L501.584 120.028L501.611 121.076L501.637 122.084H504.089C505.152 122.084 505.79 122.088 506.192 122.108C506.593 122.129 506.768 122.164 506.9 122.233C507.31 122.443 507.684 122.809 507.886 123.204L507.886 123.204C507.973 123.377 508.014 123.542 508.035 124.644C508.055 125.749 508.052 127.807 508.043 131.779V131.779L508.017 140L508.016 140.05H507.967H501.222H494.477H494.428L494.427 140.001L494.4 138.595L494.374 137.229H491.922C490.774 137.229 490.141 137.225 489.755 137.201C489.366 137.177 489.223 137.134 489.059 137.054L489.059 137.054L489.058 137.053C488.863 136.951 488.642 136.768 488.454 136.569C488.266 136.37 488.104 136.149 488.034 135.97L488.034 135.97L488.033 135.969C488.03 135.959 488.028 135.946 488.027 135.935C488.025 135.923 488.024 135.907 488.022 135.888C488.02 135.851 488.017 135.799 488.014 135.735C488.009 135.607 488.004 135.426 488 135.201C487.991 134.751 487.983 134.122 487.976 133.374C487.962 131.878 487.954 129.906 487.951 127.939C487.948 125.972 487.951 124.01 487.961 122.534C487.966 121.797 487.973 121.18 487.981 120.745C487.986 120.528 487.99 120.355 487.996 120.236C487.998 120.176 488.001 120.129 488.004 120.095C488.005 120.079 488.007 120.065 488.009 120.054C488.009 120.049 488.011 120.043 488.012 120.038C488.013 120.035 488.014 120.032 488.016 120.028ZM500.952 136.07L500.952 136.069C500.92 135.99 500.897 135.864 500.879 135.623C500.86 135.382 500.847 135.019 500.838 134.464C500.819 133.353 500.814 131.465 500.814 128.215V120.751H494.789H488.765V127.883C488.765 129.92 488.774 131.756 488.789 133.108C488.797 133.784 488.806 134.339 488.817 134.738C488.823 134.937 488.829 135.097 488.835 135.214C488.838 135.272 488.841 135.319 488.844 135.354C488.847 135.391 488.85 135.412 488.852 135.42L488.852 135.42L488.853 135.421C488.904 135.635 489.041 135.868 489.231 136.041L489.231 136.041L489.538 136.323H495.326H501.057L500.952 136.07Z" fill="#00BC74" stroke="#00BC74" stroke-width="0.1"/>
<path d="M494.298 125.089L494.346 125.074C494.371 125.152 494.454 125.224 494.569 125.266C494.682 125.308 494.812 125.315 494.914 125.275C494.944 125.263 494.966 125.241 494.979 125.205C494.994 125.167 494.998 125.113 494.99 125.042C494.984 124.996 494.974 124.961 494.958 124.931C494.943 124.901 494.919 124.874 494.88 124.845C494.8 124.785 494.662 124.725 494.415 124.635C494.07 124.509 493.837 124.389 493.691 124.235C493.542 124.077 493.489 123.888 493.489 123.638C493.489 123.168 493.701 122.763 494.052 122.582L494.052 122.582C494.128 122.544 494.189 122.496 494.231 122.447C494.274 122.397 494.293 122.35 494.293 122.313C494.293 122.272 494.297 122.234 494.311 122.201C494.327 122.165 494.353 122.139 494.389 122.121C494.423 122.105 494.465 122.096 494.515 122.091C494.565 122.085 494.626 122.084 494.7 122.084C494.781 122.084 494.845 122.085 494.897 122.09C494.947 122.095 494.991 122.105 495.026 122.126C495.063 122.149 495.084 122.182 495.095 122.223C495.106 122.26 495.108 122.306 495.108 122.358C495.108 122.414 495.12 122.462 495.136 122.493C495.155 122.528 495.171 122.532 495.174 122.532C495.204 122.532 495.236 122.542 495.266 122.556C495.296 122.57 495.328 122.59 495.36 122.614C495.425 122.661 495.495 122.726 495.562 122.798C495.694 122.941 495.821 123.12 495.865 123.256L495.865 123.256L495.865 123.257C495.878 123.304 495.889 123.347 495.888 123.384C495.888 123.403 495.884 123.423 495.874 123.442C495.864 123.461 495.849 123.476 495.831 123.487C495.797 123.508 495.751 123.517 495.697 123.521C495.641 123.526 495.569 123.527 495.477 123.527C495.349 123.527 495.235 123.513 495.143 123.488C495.052 123.464 494.976 123.427 494.931 123.376L494.931 123.376L494.93 123.375C494.804 123.226 494.558 123.25 494.439 123.441L494.439 123.441C494.409 123.488 494.4 123.519 494.401 123.54C494.402 123.559 494.412 123.581 494.452 123.61C494.492 123.64 494.558 123.672 494.656 123.709C494.754 123.745 494.882 123.785 495.045 123.832L495.045 123.832C495.187 123.873 495.324 123.931 495.441 123.997C495.556 124.062 495.654 124.138 495.714 124.217C495.918 124.48 495.95 124.889 495.868 125.244C495.827 125.422 495.756 125.591 495.659 125.725C495.563 125.858 495.44 125.96 495.293 125.997L495.293 125.997L495.292 125.998C495.217 126.014 495.174 126.04 495.148 126.071C495.122 126.103 495.108 126.148 495.108 126.218C495.108 126.265 495.106 126.308 495.095 126.344C495.084 126.383 495.062 126.416 495.026 126.438C494.992 126.459 494.948 126.469 494.897 126.475C494.846 126.481 494.781 126.482 494.7 126.482C494.626 126.482 494.565 126.481 494.515 126.476C494.465 126.47 494.423 126.462 494.389 126.445C494.353 126.427 494.327 126.401 494.311 126.366C494.297 126.332 494.293 126.294 494.293 126.253C494.293 126.221 494.274 126.176 494.233 126.126C494.193 126.078 494.135 126.03 494.069 125.993C493.72 125.808 493.502 125.555 493.436 125.206L493.436 125.206L493.383 124.919L493.371 124.86H493.432H493.834C493.998 124.86 494.112 124.868 494.191 124.899C494.233 124.915 494.266 124.938 494.292 124.968C494.317 124.999 494.334 125.035 494.346 125.074L494.298 125.089ZM494.298 125.089C494.361 125.286 494.7 125.412 494.933 125.322M494.298 125.089C494.254 124.946 494.164 124.91 493.834 124.91L494.933 125.322M494.933 125.322C495.022 125.286 495.058 125.188 495.04 125.035C495.013 124.838 494.924 124.767 494.432 124.588C493.744 124.337 493.539 124.122 493.539 123.638C493.539 123.182 493.744 122.796 494.075 122.626L494.933 125.322ZM494.397 123.414C494.271 123.611 494.379 123.692 495.031 123.88L494.397 123.414ZM494.397 123.414C494.531 123.199 494.816 123.164 494.968 123.343L494.397 123.414Z" fill="#00BC74" stroke="#00BC74" stroke-width="0.1"/>
<path d="M490.133 127.973L490.133 127.973L490.133 127.972C490.148 127.937 490.181 127.919 490.214 127.907C490.249 127.895 490.299 127.885 490.365 127.876C490.498 127.86 490.711 127.848 491.042 127.84C491.705 127.824 492.851 127.824 494.808 127.833L494.808 127.833L499.391 127.86L499.44 127.86V127.91V128.224V128.537V128.587H499.39H494.789H490.189H490.145L490.139 128.543L490.112 128.338C490.103 128.276 490.101 128.205 490.104 128.141C490.107 128.078 490.117 128.016 490.133 127.973Z" fill="#00BC74" stroke="#00BC74" stroke-width="0.1"/>
<path d="M490.133 130.123L490.133 130.122L490.133 130.121C490.148 130.087 490.181 130.068 490.214 130.057C490.249 130.044 490.299 130.034 490.365 130.026C490.498 130.009 490.711 129.997 491.042 129.989C491.705 129.974 492.851 129.974 494.808 129.983L494.808 129.983L499.391 130.009L499.44 130.01V130.059V130.373V130.686V130.736H499.39H494.789H490.189H490.145L490.139 130.693L490.112 130.487C490.103 130.425 490.101 130.355 490.104 130.291C490.107 130.227 490.117 130.165 490.133 130.123Z" fill="#00BC74" stroke="#00BC74" stroke-width="0.1"/>
<path d="M490.133 132.272L490.133 132.272L490.133 132.27C490.148 132.236 490.181 132.218 490.214 132.206C490.249 132.193 490.299 132.184 490.365 132.175C490.498 132.158 490.711 132.146 491.042 132.139C491.705 132.123 492.851 132.123 494.808 132.132L494.808 132.132L499.391 132.159L499.44 132.159V132.209V132.522V132.836V132.886H499.39H494.789H490.189H490.145L490.139 132.842L490.112 132.637C490.103 132.575 490.101 132.504 490.104 132.44C490.107 132.377 490.117 132.315 490.133 132.272Z" fill="#00BC74" stroke="#00BC74" stroke-width="0.1"/>
<path d="M481.742 -29.9568H109.653C101.56 -29.9568 95 -23.3801 95 -15.2674V44.3804C95 52.4931 101.56 59.0698 109.653 59.0698H481.742C489.835 59.0698 496.395 52.4931 496.395 44.3804V-15.2674C496.395 -23.3801 489.835 -29.9568 481.742 -29.9568Z" stroke="#A3BAB1" stroke-opacity="0.5" stroke-width="0.63"/>
<path d="M481.742 219.943H109.653C101.56 219.943 95 226.52 95 234.632V294.28C95 302.393 101.56 308.969 109.653 308.969H481.742C489.835 308.969 496.395 302.393 496.395 294.28V234.632C496.395 226.52 489.835 219.943 481.742 219.943Z" stroke="#A3BAB1" stroke-opacity="0.5" stroke-width="0.63"/>
<path d="M295.772 225.573C298.96 225.573 301.545 222.983 301.545 219.787C301.545 216.591 298.96 214 295.772 214C292.584 214 290 216.591 290 219.787C290 222.983 292.584 225.573 295.772 225.573Z" fill="#00BC74" stroke="white" stroke-width="3"/>
<path d="M295.772 65.3015C298.96 65.3015 301.545 62.7107 301.545 59.5148C301.545 56.3188 298.96 53.728 295.772 53.728C292.584 53.728 290 56.3188 290 59.5148C290 62.7107 292.584 65.3015 295.772 65.3015Z" fill="#00BC74" stroke="white" stroke-width="3"/>
</g>
<defs>
<filter id="filter0_d_1_379" x="36.9424" y="85.8091" width="115.266" height="115.453" filterUnits="userSpaceOnUse" color-interpolation-filters="sRGB">
<feFlood flood-opacity="0" result="BackgroundImageFix"/>
<feColorMatrix in="SourceAlpha" type="matrix" values="0 0 0 0 0 0 0 0 0 0 0 0 0 0 0 0 0 0 127 0" result="hardAlpha"/>
<feOffset dy="2.51029"/>
<feGaussianBlur stdDeviation="10"/>
<feComposite in2="hardAlpha" operator="out"/>
<feColorMatrix type="matrix" values="0 0 0 0 0.720833 0 0 0 0 0.720833 0 0 0 0 0.720833 0 0 0 0.2 0"/>
<feBlend mode="normal" in2="BackgroundImageFix" result="effect1_dropShadow_1_379"/>
<feBlend mode="normal" in="SourceGraphic" in2="effect1_dropShadow_1_379" result="shape"/>
</filter>
<filter id="filter1_d_1_379" x="132.942" y="85.8043" width="115.266" height="115.453" filterUnits="userSpaceOnUse" color-interpolation-filters="sRGB">
<feFlood flood-opacity="0" result="BackgroundImageFix"/>
<feColorMatrix in="SourceAlpha" type="matrix" values="0 0 0 0 0 0 0 0 0 0 0 0 0 0 0 0 0 0 127 0" result="hardAlpha"/>
<feOffset dy="2.51029"/>
<feGaussianBlur stdDeviation="10"/>
<feComposite in2="hardAlpha" operator="out"/>
<feColorMatrix type="matrix" values="0 0 0 0 0.720833 0 0 0 0 0.720833 0 0 0 0 0.720833 0 0 0 0.2 0"/>
<feBlend mode="normal" in2="BackgroundImageFix" result="effect1_dropShadow_1_379"/>
<feBlend mode="normal" in="SourceGraphic" in2="effect1_dropShadow_1_379" result="shape"/>
</filter>
<filter id="filter2_d_1_379" x="228.941" y="75.5612" width="134.693" height="134.929" filterUnits="userSpaceOnUse" color-interpolation-filters="sRGB">
<feFlood flood-opacity="0" result="BackgroundImageFix"/>
<feColorMatrix in="SourceAlpha" type="matrix" values="0 0 0 0 0 0 0 0 0 0 0 0 0 0 0 0 0 0 127 0" result="hardAlpha"/>
<feOffset dy="2.51029"/>
<feGaussianBlur stdDeviation="10"/>
<feComposite in2="hardAlpha" operator="out"/>
<feColorMatrix type="matrix" values="0 0 0 0 0.720833 0 0 0 0 0.720833 0 0 0 0 0.720833 0 0 0 0.2 0"/>
<feBlend mode="normal" in2="BackgroundImageFix" result="effect1_dropShadow_1_379"/>
<feBlend mode="normal" in="SourceGraphic" in2="effect1_dropShadow_1_379" result="shape"/>
</filter>
<filter id="filter3_d_1_379" x="343.942" y="85.8043" width="115.266" height="115.453" filterUnits="userSpaceOnUse" color-interpolation-filters="sRGB">
<feFlood flood-opacity="0" result="BackgroundImageFix"/>
<feColorMatrix in="SourceAlpha" type="matrix" values="0 0 0 0 0 0 0 0 0 0 0 0 0 0 0 0 0 0 127 0" result="hardAlpha"/>
<feOffset dy="2.51029"/>
<feGaussianBlur stdDeviation="10"/>
<feComposite in2="hardAlpha" operator="out"/>
<feColorMatrix type="matrix" values="0 0 0 0 0.720833 0 0 0 0 0.720833 0 0 0 0 0.720833 0 0 0 0.2 0"/>
<feBlend mode="normal" in2="BackgroundImageFix" result="effect1_dropShadow_1_379"/>
<feBlend mode="normal" in="SourceGraphic" in2="effect1_dropShadow_1_379" result="shape"/>
</filter>
<filter id="filter4_d_1_379" x="438.942" y="85.8043" width="115.266" height="115.453" filterUnits="userSpaceOnUse" color-interpolation-filters="sRGB">
<feFlood flood-opacity="0" result="BackgroundImageFix"/>
<feColorMatrix in="SourceAlpha" type="matrix" values="0 0 0 0 0 0 0 0 0 0 0 0 0 0 0 0 0 0 127 0" result="hardAlpha"/>
<feOffset dy="2.51029"/>
<feGaussianBlur stdDeviation="10"/>
<feComposite in2="hardAlpha" operator="out"/>
<feColorMatrix type="matrix" values="0 0 0 0 0.720833 0 0 0 0 0.720833 0 0 0 0 0.720833 0 0 0 0.2 0"/>
<feBlend mode="normal" in2="BackgroundImageFix" result="effect1_dropShadow_1_379"/>
<feBlend mode="normal" in="SourceGraphic" in2="effect1_dropShadow_1_379" result="shape"/>
</filter>
<linearGradient id="paint0_linear_1_379" x1="58.9867" y1="106.278" x2="139.285" y2="131.292" gradientUnits="userSpaceOnUse">
<stop stop-color="#D4FFEE"/>
<stop offset="1" stop-color="#90F9D1"/>
</linearGradient>
<linearGradient id="paint1_linear_1_379" x1="154.987" y1="106.273" x2="235.286" y2="131.288" gradientUnits="userSpaceOnUse">
<stop stop-color="#E9F3FF"/>
<stop offset="1" stop-color="#90F9D1"/>
</linearGradient>
<clipPath id="clip0_1_379">
<rect width="20" height="20" fill="white" transform="translate(392 120)"/>
</clipPath>
</defs>
</svg>
