<svg width="264" height="41" viewBox="0 0 264 41" fill="none" xmlns="http://www.w3.org/2000/svg">
<path d="M110.444 0.000130365H9.56145C9.19372 0.000130365 8.8304 0.000130365 8.46364 0.00213598C8.15663 0.00414159 7.85207 0.0099679 7.54211 0.0148716C6.86874 0.0227956 6.19695 0.0820359 5.53259 0.192078C4.86915 0.304515 4.2265 0.516492 3.62637 0.820838C3.02697 1.12776 2.47929 1.52657 2.00318 2.00281C1.52457 2.4777 1.12561 3.02662 0.82165 3.62845C0.516847 4.22908 0.305496 4.87271 0.194896 5.53711C0.083244 6.20067 0.0231632 6.87189 0.0151925 7.54473C0.00588648 7.85219 0.00490373 8.16067 0 8.46817V31.6473C0.00490373 31.9587 0.00588648 32.2603 0.0151925 32.5718C0.0231657 33.2446 0.0832464 33.9158 0.194896 34.5793C0.30519 35.2441 0.516554 35.8881 0.82165 36.489C1.12548 37.0889 1.52449 37.6355 2.00318 38.1078C2.47748 38.5862 3.02552 38.9852 3.62637 39.2898C4.2265 39.595 4.86908 39.8082 5.53259 39.9224C6.19707 40.0315 6.86879 40.0908 7.54211 40.0997C7.85207 40.1065 8.15663 40.1104 8.46364 40.1104C8.83039 40.1124 9.19374 40.1124 9.56145 40.1124H110.444C110.804 40.1124 111.171 40.1124 111.531 40.1104C111.837 40.1104 112.15 40.1065 112.455 40.0997C113.128 40.0913 113.798 40.032 114.461 39.9224C115.127 39.8074 115.772 39.5942 116.375 39.2898C116.975 38.9851 117.522 38.586 117.996 38.1078C118.474 37.6337 118.874 37.0874 119.181 36.489C119.484 35.8877 119.693 35.2437 119.802 34.5793C119.914 33.9157 119.976 33.2447 119.988 32.5718C119.992 32.2603 119.992 31.9587 119.992 31.6473C120 31.283 120 30.9207 120 30.5504V9.56303C120 9.19579 120 8.83149 119.992 8.46817C119.992 8.16067 119.992 7.85219 119.988 7.54469C119.976 6.87179 119.914 6.20072 119.802 5.53707C119.693 4.87305 119.484 4.22947 119.181 3.62841C118.562 2.42211 117.581 1.44019 116.375 0.820747C115.772 0.517145 115.127 0.305225 114.461 0.191987C113.798 0.0814608 113.128 0.0221999 112.455 0.0147312C112.15 0.00983754 111.837 0.00396109 111.531 0.00200561C111.171 0 110.804 0 110.444 0V0.000130365Z" fill="white"/>
<path d="M8.46856 39.2351C8.16303 39.2351 7.86487 39.2311 7.56174 39.2243C6.93376 39.2161 6.30725 39.1615 5.68735 39.0608C5.10932 38.9612 4.54937 38.776 4.02596 38.5113C3.50735 38.2488 3.03433 37.9046 2.62504 37.4919C2.20981 37.084 1.86412 36.611 1.60166 36.0915C1.33631 35.5686 1.15267 35.0081 1.05714 34.4296C0.953972 33.808 0.898156 33.1794 0.890169 32.5493C0.883812 32.3379 0.875488 31.6337 0.875488 31.6337V8.46827C0.875488 8.46827 0.884353 7.77492 0.89022 7.57122C0.897867 6.94214 0.953358 6.31456 1.05621 5.6939C1.15192 5.11379 1.3357 4.55172 1.6012 4.02713C1.8627 3.50799 2.20647 3.03458 2.61919 2.62526C3.03145 2.21204 3.50597 1.86606 4.02547 1.59992C4.54767 1.33606 5.10657 1.15219 5.68343 1.05445C6.30537 0.952732 6.93405 0.897738 7.5642 0.88993L8.46906 0.877686H111.526L112.442 0.890421C113.066 0.897841 113.689 0.952345 114.305 1.05347C114.888 1.15243 115.453 1.33759 115.981 1.60286C117.022 2.1392 117.869 2.98776 118.403 4.02958C118.664 4.55054 118.845 5.10803 118.939 5.68313C119.044 6.30888 119.102 6.9414 119.114 7.57564C119.117 7.85963 119.117 8.16468 119.117 8.46827C119.125 8.84433 119.125 9.20226 119.125 9.56313V30.5505C119.125 30.9149 119.125 31.2704 119.117 31.6288C119.117 31.9549 119.117 32.2536 119.113 32.5611C119.101 33.184 119.044 33.8052 118.941 34.4198C118.848 35.0025 118.665 35.5673 118.4 36.0945C118.136 36.6083 117.792 37.0773 117.381 37.4841C116.972 37.899 116.498 38.2452 115.978 38.5094C115.451 38.7762 114.887 38.962 114.305 39.0608C113.686 39.162 113.059 39.2167 112.431 39.2243C112.137 39.2311 111.83 39.2351 111.531 39.2351L110.444 39.2371L8.46856 39.2351Z" fill="white"/>
<path d="M24.8384 20.3574C24.8492 19.5204 25.0715 18.6997 25.4847 17.9717C25.8979 17.2437 26.4885 16.6321 27.2016 16.1937C26.7486 15.5467 26.1509 15.0143 25.4562 14.6387C24.7614 14.2631 23.9886 14.0546 23.1992 14.0299C21.5153 13.8532 19.8827 15.0376 19.0246 15.0376C18.1499 15.0376 16.8287 14.0475 15.406 14.0768C14.4857 14.1065 13.5889 14.3741 12.8028 14.8535C12.0167 15.3329 11.3682 16.0078 10.9205 16.8123C8.98108 20.1701 10.4277 25.105 12.2855 27.8192C13.215 29.1483 14.3014 30.6329 15.7228 30.5802C17.1137 30.5225 17.6332 29.6933 19.3122 29.6933C20.9757 29.6933 21.463 30.5802 22.9133 30.5467C24.4059 30.5225 25.3463 29.2118 26.2432 27.8701C26.911 26.9231 27.4249 25.8764 27.7658 24.7689C26.8987 24.4022 26.1587 23.7883 25.6381 23.0038C25.1175 22.2193 24.8394 21.2989 24.8384 20.3574V20.3574Z" fill="#131313"/>
<path d="M22.0991 12.2458C22.9129 11.2688 23.3139 10.0131 23.2168 8.74536C21.9735 8.87595 20.825 9.47017 20.0002 10.4096C19.5969 10.8686 19.288 11.4025 19.0913 11.9809C18.8945 12.5593 18.8136 13.1708 18.8533 13.7805C19.4751 13.7869 20.0904 13.6521 20.6526 13.3862C21.2148 13.1204 21.7094 12.7305 22.0991 12.2458Z" fill="#131313"/>
<path d="M42.4211 27.2161H37.6744L36.5345 30.582H34.524L39.0199 18.1292H41.1088L45.6048 30.582H43.56L42.4211 27.2161ZM38.166 25.663H41.9285L40.0737 20.2004H40.0218L38.166 25.663Z" fill="#131313"/>
<path d="M55.3146 26.0425C55.3146 28.8639 53.8045 30.6766 51.5256 30.6766C50.9484 30.7068 50.3743 30.5738 49.869 30.2928C49.3638 30.0119 48.948 29.5944 48.669 29.0881H48.6259V33.5851H46.7623V21.5024H48.5662V23.0125H48.6005C48.8922 22.5086 49.3151 22.0933 49.8242 21.8107C50.3332 21.528 50.9094 21.3887 51.4914 21.4074C53.7956 21.4074 55.3146 23.2289 55.3146 26.0425ZM53.399 26.0425C53.399 24.2043 52.4491 22.9959 50.9997 22.9959C49.5758 22.9959 48.6181 24.2298 48.6181 26.0425C48.6181 27.8718 49.5758 29.0969 50.9997 29.0969C52.4491 29.0969 53.399 27.8973 53.399 26.0425Z" fill="#131313"/>
<path d="M65.3073 26.0425C65.3073 28.8639 63.7972 30.6765 61.5184 30.6765C60.9411 30.7067 60.367 30.5738 59.8618 30.2928C59.3566 30.0119 58.9407 29.5944 58.6618 29.0881H58.6187V33.5851H56.755V21.5024H58.5589V23.0125H58.5932C58.885 22.5086 59.3079 22.0933 59.8169 21.8106C60.326 21.528 60.9021 21.3887 61.4841 21.4074C63.7884 21.4074 65.3073 23.2289 65.3073 26.0425ZM63.3918 26.0425C63.3918 24.2043 62.4419 22.9959 60.9925 22.9959C59.5686 22.9959 58.6108 24.2298 58.6108 26.0425C58.6108 27.8718 59.5686 29.0969 60.9925 29.0969C62.4419 29.0969 63.3918 27.8973 63.3918 26.0425H63.3918Z" fill="#131313"/>
<path d="M71.9117 27.112C72.0498 28.3469 73.2495 29.1577 74.8888 29.1577C76.4596 29.1577 77.5897 28.3468 77.5897 27.2333C77.5897 26.2668 76.9081 25.688 75.2943 25.2914L73.6804 24.9026C71.3937 24.3503 70.3321 23.2809 70.3321 21.5455C70.3321 19.397 72.2046 17.9211 74.8634 17.9211C77.4947 17.9211 79.2986 19.397 79.3593 21.5455H77.4781C77.3655 20.3028 76.3382 19.5527 74.8369 19.5527C73.3356 19.5527 72.3083 20.3116 72.3083 21.4163C72.3083 22.2967 72.9645 22.8147 74.5695 23.2113L75.9415 23.5482C78.4965 24.1524 79.5581 25.1788 79.5581 27.0002C79.5581 29.33 77.7023 30.7892 74.7507 30.7892C71.9891 30.7892 70.1245 29.3643 70.004 27.1119L71.9117 27.112Z" fill="#131313"/>
<path d="M83.5802 19.3547V21.5033H85.3067V22.9791H83.5802V27.9844C83.5802 28.7619 83.9259 29.1243 84.6848 29.1243C84.8898 29.1207 85.0944 29.1063 85.2979 29.0812V30.5482C84.9567 30.6119 84.6098 30.6408 84.2628 30.6343C82.4246 30.6343 81.7078 29.9439 81.7078 28.1831V22.9791H80.3877V21.5033H81.7077V19.3547H83.5802Z" fill="#131313"/>
<path d="M86.3066 26.0433C86.3066 23.1867 87.989 21.3916 90.6126 21.3916C93.2449 21.3916 94.9196 23.1866 94.9196 26.0433C94.9196 28.9078 93.2538 30.695 90.6126 30.695C87.9723 30.695 86.3066 28.9078 86.3066 26.0433ZM93.0207 26.0433C93.0207 24.0837 92.1227 22.9272 90.6126 22.9272C89.1025 22.9272 88.2054 24.0925 88.2054 26.0433C88.2054 28.0107 89.1025 29.1585 90.6126 29.1585C92.1227 29.1585 93.0206 28.0107 93.0206 26.0433H93.0207Z" fill="#131313"/>
<path d="M96.4561 21.5023H98.2335V23.0477H98.2766C98.3969 22.565 98.6797 22.1385 99.0774 21.8398C99.4751 21.5411 99.9635 21.3884 100.46 21.4073C100.675 21.4066 100.889 21.4299 101.099 21.4769V23.22C100.828 23.1372 100.545 23.0991 100.262 23.1074C99.9909 23.0964 99.721 23.1442 99.4705 23.2473C99.2199 23.3505 98.9947 23.5067 98.8102 23.7051C98.6257 23.9036 98.4863 24.1396 98.4017 24.397C98.317 24.6544 98.289 24.927 98.3197 25.1963V30.5815H96.4561L96.4561 21.5023Z" fill="#131313"/>
<path d="M109.691 27.9157C109.441 29.5639 107.836 30.695 105.782 30.695C103.141 30.695 101.501 28.9254 101.501 26.0864C101.501 23.2386 103.15 21.3916 105.704 21.3916C108.216 21.3916 109.795 23.1171 109.795 25.87V26.5085H103.383V26.6211C103.353 26.9552 103.395 27.2918 103.505 27.6086C103.616 27.9253 103.793 28.2149 104.024 28.4581C104.255 28.7013 104.535 28.8926 104.845 29.0193C105.156 29.1459 105.49 29.2051 105.825 29.1927C106.265 29.234 106.707 29.132 107.085 28.9019C107.463 28.6718 107.756 28.3259 107.922 27.9157L109.691 27.9157ZM103.391 25.206H107.931C107.947 24.9056 107.902 24.6049 107.797 24.3229C107.692 24.0409 107.53 23.7836 107.321 23.5673C107.111 23.3509 106.86 23.1801 106.582 23.0656C106.303 22.951 106.004 22.8952 105.704 22.9017C105.4 22.8999 105.099 22.9582 104.818 23.0733C104.538 23.1883 104.282 23.3579 104.067 23.5721C103.852 23.7863 103.682 24.041 103.566 24.3214C103.45 24.6019 103.391 24.9025 103.391 25.206V25.206Z" fill="#131313"/>
<path d="M37.9323 8.75606C38.3231 8.72802 38.7151 8.78704 39.0802 8.92887C39.4454 9.0707 39.7745 9.2918 40.0438 9.57623C40.3132 9.86065 40.516 10.2013 40.6378 10.5736C40.7595 10.9459 40.7971 11.3406 40.7478 11.7292C40.7478 13.6408 39.7147 14.7396 37.9323 14.7396H35.771V8.75606H37.9323ZM36.7004 13.8934H37.8285C38.1077 13.9101 38.3871 13.8644 38.6464 13.7594C38.9056 13.6545 39.1383 13.4931 39.3273 13.287C39.5163 13.0808 39.657 12.8352 39.7391 12.5678C39.8212 12.3004 39.8426 12.0181 39.8018 11.7414C39.8396 11.4658 39.816 11.1853 39.7327 10.9198C39.6493 10.6544 39.5083 10.4108 39.3197 10.2063C39.1311 10.0017 38.8996 9.84149 38.6418 9.73696C38.384 9.63243 38.1063 9.58622 37.8285 9.60163H36.7004V13.8934Z" fill="#131313"/>
<path d="M41.7977 12.4806C41.7693 12.1839 41.8033 11.8845 41.8974 11.6016C41.9915 11.3188 42.1437 11.0587 42.3442 10.8381C42.5447 10.6175 42.7891 10.4412 43.0617 10.3206C43.3343 10.2 43.6291 10.1377 43.9272 10.1377C44.2253 10.1377 44.5201 10.2 44.7928 10.3206C45.0654 10.4412 45.3098 10.6175 45.5103 10.8381C45.7108 11.0587 45.863 11.3188 45.9571 11.6016C46.0512 11.8845 46.0851 12.1839 46.0567 12.4806C46.0857 12.7777 46.0521 13.0775 45.9583 13.3608C45.8644 13.6441 45.7123 13.9047 45.5118 14.1257C45.3112 14.3468 45.0666 14.5234 44.7937 14.6443C44.5208 14.7651 44.2257 14.8276 43.9272 14.8276C43.6288 14.8276 43.3336 14.7651 43.0607 14.6443C42.7878 14.5234 42.5433 14.3468 42.3427 14.1257C42.1421 13.9047 41.9901 13.6441 41.8962 13.3608C41.8023 13.0775 41.7688 12.7777 41.7977 12.4806V12.4806ZM45.1401 12.4806C45.1401 11.5018 44.7004 10.9294 43.9287 10.9294C43.1541 10.9294 42.7183 11.5018 42.7183 12.4806C42.7183 13.4673 43.1541 14.0353 43.9287 14.0353C44.7004 14.0353 45.1401 13.4634 45.1401 12.4806H45.1401Z" fill="#131313"/>
<path d="M51.7181 14.7397H50.7936L49.8603 11.414H49.7898L48.8605 14.7397H47.9448L46.7001 10.2241H47.604L48.4129 13.6698H48.4795L49.4079 10.2241H50.2628L51.1912 13.6698H51.2617L52.0667 10.2241H52.9579L51.7181 14.7397Z" fill="#131313"/>
<path d="M54.0047 10.2234H54.8626V10.9408H54.9292C55.0421 10.6831 55.2327 10.4672 55.4742 10.323C55.7158 10.1787 55.9963 10.1135 56.2767 10.1363C56.4964 10.1198 56.717 10.1529 56.9222 10.2332C57.1274 10.3135 57.3118 10.439 57.4619 10.6003C57.612 10.7616 57.7239 10.9546 57.7893 11.165C57.8547 11.3754 57.8719 11.5978 57.8397 11.8158V14.739H56.9485V12.0396C56.9485 11.3139 56.6332 10.953 55.9741 10.953C55.8249 10.9461 55.676 10.9715 55.5375 11.0275C55.3991 11.0834 55.2744 11.1687 55.172 11.2774C55.0696 11.3861 54.9919 11.5156 54.9442 11.6572C54.8966 11.7987 54.8801 11.9488 54.8959 12.0973V14.739H54.0047L54.0047 10.2234Z" fill="#131313"/>
<path d="M59.2597 8.46143H60.1508V14.7397H59.2597V8.46143Z" fill="#131313"/>
<path d="M61.3897 12.479C61.3613 12.1822 61.3953 11.8828 61.4894 11.5999C61.5835 11.3171 61.7357 11.057 61.9362 10.8364C62.1368 10.6158 62.3812 10.4395 62.6538 10.3189C62.9264 10.1983 63.2213 10.136 63.5194 10.136C63.8175 10.136 64.1123 10.1983 64.385 10.3189C64.6576 10.4395 64.902 10.6158 65.1025 10.8364C65.3031 11.057 65.4553 11.3171 65.5494 11.5999C65.6435 11.8828 65.6775 12.1822 65.6491 12.479C65.678 12.7761 65.6444 13.0759 65.5506 13.3592C65.4567 13.6425 65.3046 13.9031 65.104 14.1241C64.9034 14.3451 64.6588 14.5217 64.3859 14.6426C64.113 14.7635 63.8179 14.8259 63.5194 14.8259C63.2209 14.8259 62.9258 14.7635 62.6529 14.6426C62.38 14.5217 62.1354 14.3451 61.9348 14.1241C61.7342 13.9031 61.5821 13.6425 61.4882 13.3592C61.3943 13.0759 61.3608 12.7761 61.3897 12.479V12.479ZM64.732 12.479C64.732 11.5002 64.2923 10.9278 63.5206 10.9278C62.746 10.9278 62.3102 11.5002 62.3102 12.479C62.3102 13.4657 62.746 14.0337 63.5206 14.0337C64.2923 14.0337 64.732 13.4617 64.732 12.479H64.732Z" fill="#131313"/>
<path d="M66.5873 13.4634C66.5873 12.6506 67.1925 12.182 68.2668 12.1154L69.49 12.0449V11.6551C69.49 11.1782 69.1746 10.9089 68.5655 10.9089C68.068 10.9089 67.7233 11.0915 67.6244 11.4108H66.7616C66.8527 10.6352 67.5823 10.1377 68.6066 10.1377C69.7387 10.1377 70.3772 10.7013 70.3772 11.6551V14.7404H69.5194V14.1058H69.4488C69.3057 14.3335 69.1048 14.519 68.8665 14.6436C68.6282 14.7682 68.3611 14.8272 68.0925 14.8148C67.9029 14.8345 67.7113 14.8143 67.5301 14.7554C67.3488 14.6966 67.1819 14.6004 67.0401 14.4731C66.8983 14.3457 66.7847 14.1901 66.7067 14.0162C66.6287 13.8423 66.5881 13.654 66.5873 13.4634V13.4634ZM69.49 13.0776V12.7L68.3873 12.7705C67.7654 12.8122 67.4834 13.0237 67.4834 13.4218C67.4834 13.8282 67.8359 14.0647 68.3207 14.0647C68.4628 14.0791 68.6062 14.0647 68.7426 14.0225C68.879 13.9803 69.0055 13.9111 69.1146 13.819C69.2237 13.7269 69.3132 13.6138 69.3776 13.4864C69.4421 13.359 69.4803 13.22 69.49 13.0776V13.0776Z" fill="#131313"/>
<path d="M71.5485 12.48C71.5485 11.0532 72.282 10.1493 73.4229 10.1493C73.7051 10.1363 73.9851 10.2039 74.2304 10.3441C74.4756 10.4844 74.6758 10.6916 74.8076 10.9415H74.8742V8.46143H75.7654V14.7397H74.9114V14.0263H74.8409C74.6989 14.2745 74.4917 14.4791 74.2417 14.618C73.9918 14.7568 73.7086 14.8247 73.4229 14.8142C72.2741 14.8142 71.5485 13.9103 71.5485 12.48ZM72.469 12.48C72.469 13.4378 72.9205 14.0141 73.6756 14.0141C74.4267 14.0141 74.8909 13.4295 74.8909 12.4839C74.8909 11.5428 74.4218 10.9499 73.6756 10.9499C72.9254 10.9499 72.469 11.5301 72.469 12.48H72.469Z" fill="#131313"/>
<path d="M79.4524 12.4806C79.424 12.1839 79.458 11.8845 79.5521 11.6016C79.6462 11.3188 79.7984 11.0587 79.9989 10.8381C80.1994 10.6175 80.4438 10.4412 80.7164 10.3206C80.989 10.2 81.2838 10.1377 81.5819 10.1377C81.88 10.1377 82.1748 10.2 82.4475 10.3206C82.7201 10.4412 82.9645 10.6175 83.165 10.8381C83.3655 11.0587 83.5176 11.3188 83.6118 11.6016C83.7059 11.8845 83.7398 12.1839 83.7114 12.4806C83.7403 12.7777 83.7068 13.0775 83.6129 13.3608C83.5191 13.6441 83.367 13.9047 83.1664 14.1257C82.9659 14.3468 82.7213 14.5234 82.4484 14.6443C82.1755 14.7651 81.8804 14.8276 81.5819 14.8276C81.2835 14.8276 80.9883 14.7651 80.7154 14.6443C80.4425 14.5234 80.1979 14.3468 79.9974 14.1257C79.7968 13.9047 79.6447 13.6441 79.5509 13.3608C79.457 13.0775 79.4235 12.7777 79.4524 12.4806V12.4806ZM82.7948 12.4806C82.7948 11.5018 82.3551 10.9294 81.5834 10.9294C80.8088 10.9294 80.373 11.5018 80.373 12.4806C80.373 13.4673 80.8088 14.0353 81.5834 14.0353C82.3551 14.0353 82.7948 13.4634 82.7948 12.4806Z" fill="#131313"/>
<path d="M84.9072 10.2234H85.7651V10.9408H85.8317C85.9446 10.6831 86.1352 10.4672 86.3767 10.323C86.6183 10.1787 86.8988 10.1135 87.1792 10.1363C87.3989 10.1198 87.6195 10.1529 87.8247 10.2332C88.0299 10.3135 88.2143 10.439 88.3644 10.6003C88.5145 10.7616 88.6264 10.9546 88.6918 11.165C88.7572 11.3754 88.7744 11.5978 88.7421 11.8158V14.739H87.851V12.0396C87.851 11.3139 87.5357 10.953 86.8766 10.953C86.7274 10.9461 86.5785 10.9715 86.44 11.0275C86.3016 11.0834 86.1769 11.1687 86.0745 11.2774C85.9721 11.3861 85.8944 11.5156 85.8467 11.6572C85.7991 11.7987 85.7826 11.9488 85.7984 12.0973V14.739H84.9072V10.2234Z" fill="#131313"/>
<path d="M93.7777 9.09961V10.2444H94.756V10.9951H93.7777V13.317C93.7777 13.79 93.9726 13.9971 94.4162 13.9971C94.5298 13.9967 94.6432 13.9899 94.756 13.9765V14.7188C94.596 14.7475 94.4338 14.7627 94.2712 14.7644C93.2802 14.7644 92.8855 14.4157 92.8855 13.5452V10.995H92.1687V10.2444H92.8855V9.09961H93.7777Z" fill="#131313"/>
<path d="M95.9733 8.46143H96.8566V10.9498H96.9271C97.0456 10.6898 97.2413 10.4726 97.4877 10.3278C97.7341 10.1831 98.0191 10.1178 98.304 10.1409C98.5225 10.129 98.741 10.1655 98.9439 10.2478C99.1467 10.3301 99.3289 10.4561 99.4775 10.6169C99.626 10.7777 99.7372 10.9693 99.8032 11.178C99.8692 11.3867 99.8882 11.6074 99.8591 11.8244V14.7397H98.967V12.0442C98.967 11.3229 98.6311 10.9577 98.0014 10.9577C97.8483 10.9451 97.6942 10.9662 97.55 11.0194C97.4059 11.0726 97.275 11.1566 97.1667 11.2657C97.0584 11.3747 96.9753 11.5061 96.9231 11.6506C96.8709 11.7952 96.8509 11.9494 96.8645 12.1025V14.7397H95.9733L95.9733 8.46143Z" fill="#131313"/>
<path d="M105.055 13.5196C104.934 13.9322 104.672 14.2892 104.314 14.528C103.957 14.7669 103.526 14.8723 103.099 14.8259C102.801 14.8338 102.506 14.7768 102.232 14.659C101.959 14.5411 101.715 14.3652 101.516 14.1434C101.318 13.9217 101.17 13.6594 101.083 13.3748C100.996 13.0901 100.972 12.79 101.013 12.4952C100.973 12.1995 100.998 11.8987 101.084 11.6132C101.171 11.3278 101.318 11.0643 101.515 10.8406C101.713 10.6169 101.956 10.4382 102.229 10.3167C102.501 10.1951 102.796 10.1335 103.095 10.1361C104.351 10.1361 105.109 10.9945 105.109 12.4124V12.7234H101.921V12.7733C101.907 12.939 101.927 13.1058 101.982 13.263C102.036 13.4202 102.123 13.5643 102.236 13.6861C102.349 13.8079 102.486 13.9047 102.639 13.9703C102.792 14.0359 102.957 14.0688 103.123 14.067C103.336 14.0925 103.552 14.0542 103.744 13.9567C103.935 13.8592 104.093 13.707 104.197 13.5195L105.055 13.5196ZM101.921 12.0643H104.201C104.213 11.9128 104.192 11.7605 104.141 11.6174C104.09 11.4743 104.009 11.3434 103.905 11.2333C103.8 11.1231 103.673 11.0361 103.533 10.9777C103.393 10.9194 103.242 10.8911 103.09 10.8945C102.936 10.8926 102.783 10.9215 102.64 10.9796C102.497 11.0378 102.368 11.1239 102.259 11.2329C102.15 11.3419 102.064 11.4716 102.006 11.6144C101.947 11.7572 101.919 11.9102 101.921 12.0643H101.921Z" fill="#131313"/>
<path d="M259.299 40H148.435C145.996 40 144 37.75 144 35V5.00008C144 2.25009 145.996 9.17912e-05 148.435 9.17912e-05H259.299C261.738 9.17912e-05 263.734 2.25009 263.734 5.00008V35C263.734 37.75 261.738 40 259.299 40Z" fill="white"/>
<path d="M259.299 9.20295e-05H148.435C145.996 9.20295e-05 144 2.25009 144 5.00008V35C144 37.75 145.996 40 148.435 40H259.299C261.738 40 263.734 37.75 263.734 35V5.00008C263.734 2.25009 261.738 9.20295e-05 259.299 9.20295e-05ZM259.299 0.800091C261.353 0.800091 263.024 2.68449 263.024 5.00008V35C263.024 37.316 261.353 39.2004 259.299 39.2004H148.435C146.381 39.2004 144.71 37.316 144.71 35V5.00008C144.71 2.68449 146.381 0.800091 148.435 0.800091H259.299Z" fill="white"/>
<path d="M186.056 10.2434C186.056 11.0812 185.836 11.7484 185.395 12.2461C184.895 12.8379 184.242 13.134 183.44 13.134C182.672 13.134 182.019 12.834 181.482 12.2332C180.944 11.6328 180.676 10.8883 180.676 10C180.676 9.11134 180.944 8.36724 181.482 7.76644C182.019 7.16604 182.672 6.86565 183.44 6.86565C183.822 6.86565 184.186 6.94964 184.533 7.11724C184.879 7.28524 185.157 7.50824 185.365 7.78754L184.897 8.31524C184.545 7.84064 184.06 7.60354 183.44 7.60354C182.88 7.60354 182.396 7.82544 181.987 8.26954C181.578 8.71414 181.374 9.29064 181.374 10C181.374 10.7094 181.578 11.2859 181.987 11.7305C182.396 12.1746 182.88 12.3965 183.44 12.3965C184.035 12.3965 184.53 12.1734 184.927 11.7266C185.184 11.4355 185.333 11.0309 185.373 10.5113H183.44V9.79064H186.019C186.044 9.94734 186.056 10.0977 186.056 10.2434" fill="#131313"/>
<path d="M186.056 10.2435H185.968C185.967 11.0622 185.755 11.6981 185.333 12.1755L185.332 12.1763L185.331 12.1771C184.847 12.7485 184.224 13.0329 183.44 13.0341C182.693 13.0329 182.067 12.7454 181.545 12.1626C181.023 11.5786 180.766 10.8657 180.765 10.0001C180.766 9.13414 181.023 8.42164 181.545 7.83804C182.067 7.25484 182.693 6.96694 183.44 6.96574C183.81 6.96574 184.162 7.04704 184.498 7.20914C184.834 7.37244 185.099 7.58644 185.297 7.85214L185.365 7.78764L185.302 7.71694L184.835 8.24504L184.897 8.31534L184.966 8.25134C184.597 7.75324 184.079 7.50214 183.44 7.50364C182.86 7.50284 182.348 7.73684 181.926 8.19784C181.499 8.66034 181.285 9.26924 181.285 10.0001C181.285 10.731 181.499 11.3399 181.926 11.8024C182.348 12.2634 182.86 12.4974 183.44 12.4966C184.054 12.4978 184.578 12.263 184.989 11.7974C185.265 11.4864 185.421 11.0556 185.461 10.52L185.47 10.4114H183.529V9.89074H186.019V9.79074L185.932 9.80834C185.956 9.95994 185.968 10.104 185.968 10.2435H186.056H186.145C186.145 10.0915 186.132 9.93534 186.106 9.77284L186.093 9.69074H183.352V10.5114V10.6114H185.373V10.5114L185.285 10.5028C185.246 11.006 185.103 11.3849 184.864 11.656C184.483 12.0841 184.015 12.2954 183.44 12.2966C182.901 12.2958 182.443 12.0864 182.049 11.6587C181.658 11.2325 181.464 10.6884 181.463 10.0001C181.464 9.31184 181.658 8.76774 182.049 8.34154C182.443 7.91384 182.901 7.70444 183.44 7.70364C184.04 7.70524 184.493 7.92864 184.829 8.37984L184.892 8.46344L185.428 7.85834L185.485 7.79354L185.433 7.72354C185.215 7.43064 184.925 7.19814 184.568 7.02554C184.21 6.85244 183.833 6.76574 183.44 6.76574C182.652 6.76494 181.972 7.07744 181.42 7.69584C180.866 8.31304 180.586 9.08884 180.587 10.0001C180.586 10.911 180.866 11.6872 181.42 12.3048C181.972 12.9228 182.652 13.2349 183.44 13.2341C184.262 13.2349 184.943 12.9274 185.46 12.3153L185.395 12.2462L185.458 12.3169C185.918 11.7993 186.146 11.1001 186.145 10.2435H186.056Z" fill="#131313"/>
<path d="M190.144 7.73711H187.721V9.6395H189.906V10.3605H187.721V12.2629H190.144V13H187.038V7.00001H190.144V7.73711Z" fill="#131313"/>
<path d="M190.144 7.73696V7.63697H187.632V9.73936H189.818V10.2601L187.632 10.2604V12.3628H190.056V12.8999H187.126V7.09987H190.056V7.73696H190.144V7.63697V7.73696H190.233V6.99987V6.89987H186.949V13.0999H190.233V12.2628V12.1628H187.81V10.4604H189.995V9.63936V9.53936H187.81V7.83696H190.233V7.73696H190.144" fill="#131313"/>
<path d="M193.028 13H192.344V7.73711H190.857V7.00001H194.514V7.73711H193.028V13Z" fill="#131313"/>
<path d="M193.028 12.9999V12.8999H192.432V7.63697H190.946V7.09987H194.425V7.63697H192.939V12.9999H193.028V12.8999V12.9999H193.117V7.83696H194.603V6.99987V6.89987H190.769V7.73696V7.83696H192.255V13.0999H193.028H193.117V12.9999H193.028" fill="#131313"/>
<path d="M197.16 13V7.00001H197.844V13H197.16Z" fill="#131313"/>
<path d="M197.16 12.9999H197.249V7.09987H197.755V12.8999H197.16V12.9999H197.249H197.16V13.0999H197.844H197.932V6.89987H197.16H197.071V13.0999H197.16V12.9999Z" fill="#131313"/>
<path d="M200.877 13H200.192V7.73711H198.706V7.00001H202.363V7.73711H200.877V13Z" fill="#131313"/>
<path d="M200.877 12.9999V12.8999H200.281V7.63697H198.795V7.09987H202.274V7.63697H200.788V12.9999H200.877V12.8999V12.9999H200.965V7.83696H202.452V6.99987V6.89987H198.617V7.73696V7.83696H200.104V13.0999H200.877H200.965V12.9999H200.877" fill="#131313"/>
<path d="M205.889 11.7223C206.282 12.1719 206.764 12.3965 207.334 12.3965C207.904 12.3965 208.386 12.1719 208.78 11.7223C209.174 11.2727 209.371 10.698 209.371 10C209.371 9.30204 209.174 8.72734 208.78 8.27774C208.386 7.82814 207.904 7.60354 207.334 7.60354C206.764 7.60354 206.282 7.82814 205.889 8.27774C205.495 8.72734 205.298 9.30204 205.298 10C205.298 10.698 205.495 11.2727 205.889 11.7223ZM209.285 12.2246C208.762 12.8312 208.112 13.134 207.334 13.134C206.556 13.134 205.906 12.8312 205.384 12.2246C204.86 11.6187 204.6 10.877 204.6 10C204.6 9.12304 204.86 8.38124 205.384 7.77544C205.906 7.16874 206.556 6.86565 207.334 6.86565C208.108 6.86565 208.756 7.17034 209.282 7.77934C209.807 8.38834 210.07 9.12854 210.07 10C210.07 10.877 209.808 11.6187 209.285 12.2246Z" fill="#131313"/>
<path d="M205.888 11.7224L205.825 11.7927C206.234 12.2603 206.744 12.4978 207.334 12.4966C207.925 12.4978 208.435 12.2603 208.843 11.7927C209.254 11.3247 209.461 10.7192 209.46 10.0001C209.461 9.28104 209.254 8.67554 208.843 8.20754C208.435 7.73994 207.925 7.50244 207.334 7.50364C206.744 7.50244 206.234 7.73994 205.825 8.20754C205.415 8.67554 205.208 9.28104 205.209 10.0001C205.208 10.7192 205.415 11.3247 205.825 11.7927L205.888 11.7224L205.952 11.6521C205.575 11.2204 205.387 10.6774 205.386 10.0001C205.387 9.32284 205.575 8.77984 205.952 8.34814C206.331 7.91654 206.785 7.70484 207.334 7.70364C207.883 7.70484 208.338 7.91654 208.717 8.34814C209.094 8.77984 209.282 9.32284 209.282 10.0001C209.282 10.6774 209.094 11.2204 208.717 11.6521C208.338 12.0837 207.883 12.2954 207.334 12.2966C206.785 12.2954 206.331 12.0837 205.952 11.6521L205.888 11.7224ZM209.285 12.2247L209.222 12.1552C208.713 12.7427 208.092 13.0329 207.334 13.0341C206.577 13.0329 205.955 12.7427 205.447 12.1552L205.445 12.1521L205.447 12.1552C204.94 11.5657 204.689 10.8548 204.688 10.0001C204.689 9.14544 204.94 8.43454 205.447 7.84504C205.955 7.25754 206.577 6.96694 207.334 6.96574C208.087 6.96694 208.707 7.25874 209.219 7.84934C209.728 8.44154 209.98 9.15134 209.981 10.0001C209.98 10.8548 209.729 11.5657 209.222 12.1552L209.285 12.2247L209.349 12.2942C209.887 11.6716 210.159 10.8993 210.158 10.0001C210.159 9.10604 209.886 8.33534 209.346 7.70994C208.805 7.08214 208.128 6.76464 207.334 6.76574C206.536 6.76464 205.857 7.08064 205.32 7.70604V7.70564C204.781 8.32864 204.51 9.10094 204.511 10.0001C204.51 10.8993 204.781 11.6716 205.32 12.2946L205.322 12.2974L205.32 12.2942C205.857 12.9196 206.536 13.2349 207.334 13.2341C208.132 13.2349 208.811 12.9196 209.349 12.2942L209.285 12.2247" fill="#131313"/>
<path d="M211.029 13V7.00001H211.861L214.448 11.6676H214.477L214.448 10.5113V7.00001H215.132V13H214.418L211.712 8.10621H211.683L211.712 9.26291V13H211.029Z" fill="#131313"/>
<path d="M211.029 12.9999H211.118V7.09987H211.812L214.398 11.7675H214.477H214.568L214.536 10.5097V7.09987H215.043V12.8999H214.467L211.762 8.00607H211.683H211.592L211.624 9.26436V12.8999H211.029V12.9999H211.118H211.029V13.0999H211.712H211.801V9.26116L211.772 8.10336L211.683 8.10607V8.20606H211.712V8.10607L211.637 8.15926L214.369 13.0999H215.132H215.221V6.89987H214.448H214.359V10.5124L214.388 11.6702L214.477 11.6675V11.5675H214.448V11.6675L214.523 11.6144L211.91 6.89987H211.029H210.94V13.0999H211.029V12.9999Z" fill="#131313"/>
<path d="M238.843 30H240.498V17.4988H238.843V30ZM253.75 22.002L251.853 27.4219H251.796L249.827 22.002H248.044L250.997 29.5773L249.313 33.791H251.04L255.59 22.002H253.75ZM244.364 28.5801C243.822 28.5801 243.066 28.2746 243.066 27.5184C243.066 26.5535 244.008 26.1836 244.82 26.1836C245.549 26.1836 245.89 26.3605 246.333 26.602C246.204 27.7598 245.32 28.5801 244.364 28.5801V28.5801ZM244.564 21.7285C243.366 21.7285 242.125 22.3238 241.611 23.6426L243.08 24.334C243.394 23.6426 243.979 23.4172 244.592 23.4172C245.448 23.4172 246.318 23.9965 246.333 25.0258V25.1543C246.033 24.9613 245.392 24.6719 244.607 24.6719C243.023 24.6719 241.411 25.6527 241.411 27.4863C241.411 29.159 242.709 30.2367 244.164 30.2367C245.277 30.2367 245.89 29.6738 246.276 29.0145H246.333V29.9793H247.93V25.1863C247.93 22.9672 246.461 21.7285 244.564 21.7285V21.7285ZM234.336 23.5238H231.982V19.2387H234.336C235.573 19.2387 236.276 20.3937 236.276 21.3812C236.276 22.35 235.573 23.5238 234.336 23.5238ZM234.294 17.4988H230.328V30H231.982V25.2637H234.294C236.128 25.2637 237.931 23.7664 237.931 21.3812C237.931 18.9961 236.128 17.4988 234.294 17.4988ZM212.67 28.5824C211.526 28.5824 210.569 27.5031 210.569 26.0207C210.569 24.5227 211.526 23.427 212.67 23.427C213.798 23.427 214.684 24.5227 214.684 26.0207C214.684 27.5031 213.798 28.5824 212.67 28.5824V28.5824ZM214.57 22.702H214.513C214.141 22.2027 213.427 21.7516 212.527 21.7516C210.64 21.7516 208.912 23.6203 208.912 26.0207C208.912 28.4051 210.64 30.2578 212.527 30.2578C213.427 30.2578 214.141 29.8066 214.513 29.2914H214.57V29.9035C214.57 31.5309 213.798 32.4008 212.555 32.4008C211.541 32.4008 210.912 31.5789 210.655 30.8863L209.212 31.5629C209.626 32.6906 210.726 34.0762 212.555 34.0762C214.499 34.0762 216.142 32.7871 216.142 29.6457V22.0094H214.57V22.702ZM217.285 30H218.942V17.4984H217.285V30ZM221.386 25.8758C221.343 24.2324 222.514 23.3949 223.357 23.3949C224.015 23.3949 224.572 23.7652 224.757 24.2973L221.386 25.8758ZM226.529 24.4582C226.215 23.5074 225.258 21.7516 223.3 21.7516C221.357 21.7516 219.742 23.4754 219.742 26.0047C219.742 28.3891 221.343 30.2578 223.486 30.2578C225.215 30.2578 226.215 29.0656 226.63 28.373L225.344 27.4062C224.915 28.1152 224.329 28.5824 223.486 28.5824C222.643 28.5824 222.043 28.1473 221.657 27.2937L226.701 24.9414L226.529 24.4582ZM186.345 23.0566V24.8609H190.174C190.06 25.8758 189.76 26.6168 189.302 27.1324C188.745 27.7609 187.874 28.4535 186.345 28.4535C183.987 28.4535 182.144 26.3109 182.144 23.6527C182.144 20.9945 183.987 18.8516 186.345 18.8516C187.617 18.8516 188.545 19.4156 189.231 20.1406L190.36 18.868C189.403 17.8367 188.131 17.0473 186.345 17.0473C183.115 17.0473 180.401 20.0117 180.401 23.6527C180.401 27.2937 183.115 30.2578 186.345 30.2578C188.088 30.2578 189.403 29.6137 190.431 28.4051C191.489 27.2129 191.817 25.5375 191.817 24.1844C191.817 23.7652 191.789 23.3789 191.731 23.0566H186.345ZM196.171 28.5824C195.028 28.5824 194.042 27.5191 194.042 26.0047C194.042 24.4742 195.028 23.427 196.171 23.427C197.314 23.427 198.3 24.4742 198.3 26.0047C198.3 27.5191 197.314 28.5824 196.171 28.5824V28.5824ZM196.171 21.7516C194.085 21.7516 192.384 23.5398 192.384 26.0047C192.384 28.4535 194.085 30.2578 196.171 30.2578C198.257 30.2578 199.957 28.4535 199.957 26.0047C199.957 23.5398 198.257 21.7516 196.171 21.7516ZM204.431 28.5824C203.288 28.5824 202.302 27.5191 202.302 26.0047C202.302 24.4742 203.288 23.427 204.431 23.427C205.574 23.427 206.56 24.4742 206.56 26.0047C206.56 27.5191 205.574 28.5824 204.431 28.5824ZM204.431 21.7516C202.345 21.7516 200.645 23.5398 200.645 26.0047C200.645 28.4535 202.345 30.2578 204.431 30.2578C206.517 30.2578 208.217 28.4535 208.217 26.0047C208.217 23.5398 206.517 21.7516 204.431 21.7516Z" fill="#131313"/>
<path d="M154.186 32.8586C154.465 32.8406 154.774 32.7324 155.099 32.525L167.971 24.2782L155.099 32.525C154.774 32.7328 154.465 32.8406 154.186 32.8586V32.8586ZM153.321 32.5359L153.318 32.5332C153.319 32.534 153.32 32.5351 153.321 32.5359ZM153.261 32.4703L153.255 32.4641V32.4637C153.258 32.466 153.259 32.4683 153.261 32.4703Z" fill="white"/>
<path d="M167.971 24.2786L168.055 24.225L167.971 24.2786Z" fill="url(#paint0_linear_1_46)"/>
<path d="M153.255 32.4644C152.997 32.1565 152.845 31.6784 152.845 31.0593V31.0589C152.845 31.6784 152.997 32.1561 153.255 32.464V32.4644" fill="white"/>
<path d="M153.255 32.4639L153.321 32.3891V32.3894L153.255 32.4639" fill="url(#paint1_linear_1_46)"/>
<path d="M173.222 20.5178C173.29 20.349 173.324 20.1756 173.324 20.0021C173.324 20.0018 173.324 20.0014 173.324 20.0014C173.324 20.1752 173.29 20.3486 173.222 20.5178Z" fill="white"/>
<path d="M173.324 20.0005V20.0001C173.324 19.477 173.014 18.954 172.395 18.5571L168.055 15.777H168.055L168.055 15.7767L172.395 18.5567C173.014 18.9536 173.325 19.4774 173.324 20.0005Z" fill="#404040"/>
<path d="M152.845 8.93799C152.845 8.93759 152.845 8.93719 152.845 8.93679C152.845 8.93719 152.845 8.93759 152.845 8.93799ZM152.849 8.77549C152.849 8.77469 152.849 8.77389 152.849 8.77309C152.849 8.77389 152.849 8.77469 152.849 8.77549ZM152.849 8.77079C152.849 8.76919 152.849 8.76769 152.849 8.76609C152.849 8.76769 152.849 8.76919 152.849 8.77079ZM152.849 8.76489C152.9 7.73759 153.396 7.14419 154.097 7.14069C153.793 7.14269 153.528 7.25519 153.321 7.46569V7.46529L153.318 7.46809C153.297 7.49029 153.276 7.51379 153.255 7.53799C153.023 7.81569 152.876 8.23169 152.849 8.76489Z" fill="#404040"/>
<path opacity="0.5" fill-rule="evenodd" clip-rule="evenodd" d="M154.392 7.38346C154.143 7.68561 154 8.15065 154 8.75494V30.2494C154 30.8536 154.143 31.3187 154.401 31.6103L154.469 31.6747L165.134 19.6309V19.3603L154.46 7.31909L154.392 7.38346V7.38346Z" fill="#131313"/>
<path fill-rule="evenodd" clip-rule="evenodd" d="M168.682 23.6612L165.125 19.6427V19.3616L168.684 15.343L168.76 15.3969L172.969 18.0978C174.175 18.865 174.175 20.1287 172.969 20.9064L168.76 23.6074C168.759 23.6074 168.682 23.6612 168.682 23.6612V23.6612Z" fill="#131313"/>
<path opacity="0.7" fill-rule="evenodd" clip-rule="evenodd" d="M168.76 23.6074L165.126 19.5022L154.393 31.6222C154.785 32.0977 155.444 32.1516 156.182 31.6865L168.76 23.6074Z" fill="#131313"/>
<path opacity="0.9" fill-rule="evenodd" clip-rule="evenodd" d="M168.76 15.3982L156.182 7.32953C155.445 6.85397 154.785 6.91834 154.393 7.3939L165.124 19.5021L168.76 15.3982Z" fill="#131313"/>
<path opacity="0.2" fill-rule="evenodd" clip-rule="evenodd" d="M168.683 23.5208L156.191 31.5355C155.493 31.9887 154.87 31.9572 154.469 31.546L154.401 31.6222L154.469 31.6866C154.87 32.0965 155.493 32.1293 156.191 31.6761L168.769 23.6075L168.683 23.5208V23.5208Z" fill="#131313"/>
<path opacity="0.12" fill-rule="evenodd" clip-rule="evenodd" d="M172.968 20.7659L168.673 23.5207L168.75 23.6074L172.959 20.9065C173.561 20.5177 173.858 20.0106 173.858 19.5022C173.82 19.9672 173.514 20.4099 172.968 20.7659V20.7659Z" fill="#131313"/>
<path opacity="0.25" fill-rule="evenodd" clip-rule="evenodd" d="M156.181 7.47019L172.968 18.2397C173.514 18.5852 173.82 19.0384 173.867 19.5035C173.867 18.9964 173.571 18.488 172.968 18.0992L156.181 7.32962C154.976 6.55193 154 7.19957 154 8.75497V8.89553C154 7.34013 154.976 6.703 156.181 7.47019Z" fill="#131313"/>
<defs>
<linearGradient id="paint0_linear_1_46" x1="174.019" y1="19.9943" x2="152.521" y2="19.9943" gradientUnits="userSpaceOnUse">
<stop stop-color="#CCB300"/>
<stop offset="0.4087" stop-color="#CC9700"/>
<stop offset="0.7754" stop-color="#CC8400"/>
<stop offset="1" stop-color="#CC7D00"/>
</linearGradient>
<linearGradient id="paint1_linear_1_46" x1="166.042" y1="22.2785" x2="143.408" y2="42.354" gradientUnits="userSpaceOnUse">
<stop stop-color="#E0333C"/>
<stop offset="1" stop-color="#AB0F56"/>
</linearGradient>
</defs>
</svg>
