<svg width="40" height="40" viewBox="0 0 40 40" fill="none" xmlns="http://www.w3.org/2000/svg">
<path d="M35.6666 19.9999C35.6666 28.6524 28.6524 35.6666 20 35.6666V37.6666C29.757 37.6666 37.6666 29.7569 37.6666 19.9999H35.6666ZM20 35.6666C11.3475 35.6666 4.33331 28.6524 4.33331 19.9999H2.33331C2.33331 29.7569 10.2429 37.6666 20 37.6666V35.6666ZM4.33331 19.9999C4.33331 11.3475 11.3475 4.33325 20 4.33325V2.33325C10.2429 2.33325 2.33331 10.2429 2.33331 19.9999H4.33331ZM20 4.33325C28.6524 4.33325 35.6666 11.3475 35.6666 19.9999H37.6666C37.6666 10.2429 29.757 2.33325 20 2.33325V4.33325Z" fill="#00100B"/>
<path d="M20.6667 13C20.6667 12.4477 20.219 12 19.6667 12C19.1144 12 18.6667 12.4477 18.6667 13H20.6667ZM18.6667 26.3333C18.6667 26.8856 19.1144 27.3333 19.6667 27.3333C20.219 27.3333 20.6667 26.8856 20.6667 26.3333H18.6667ZM13 18.6667C12.4477 18.6667 12 19.1144 12 19.6667C12 20.219 12.4477 20.6667 13 20.6667V18.6667ZM26.3333 20.6667C26.8856 20.6667 27.3333 20.219 27.3333 19.6667C27.3333 19.1144 26.8856 18.6667 26.3333 18.6667V20.6667ZM18.6667 13V26.3333H20.6667V13H18.6667ZM13 20.6667H26.3333V18.6667H13V20.6667Z" fill="#00100B"/>
</svg>
