<svg width="80" height="16" viewBox="0 0 80 16" fill="none" xmlns="http://www.w3.org/2000/svg">
<path d="M8.00001 1.33325L10.06 5.50659L14.6667 6.17992L11.3333 9.42659L12.12 14.0133L8.00001 11.8466L3.88001 14.0133L4.66668 9.42659L1.33334 6.17992L5.94001 5.50659L8.00001 1.33325Z" fill="#E4AA3D" stroke="#E4AA3D" stroke-width="1.33333" stroke-linecap="round" stroke-linejoin="round"/>
<path d="M24 1.33325L26.06 5.50659L30.6667 6.17992L27.3333 9.42659L28.12 14.0133L24 11.8466L19.88 14.0133L20.6667 9.42659L17.3333 6.17992L21.94 5.50659L24 1.33325Z" fill="#E4AA3D" stroke="#E4AA3D" stroke-width="1.33333" stroke-linecap="round" stroke-linejoin="round"/>
<path d="M40 1.33325L42.06 5.50659L46.6667 6.17992L43.3333 9.42659L44.12 14.0133L40 11.8466L35.88 14.0133L36.6667 9.42659L33.3333 6.17992L37.94 5.50659L40 1.33325Z" fill="#E4AA3D" stroke="#E4AA3D" stroke-width="1.33333" stroke-linecap="round" stroke-linejoin="round"/>
<path d="M56 1.33325L58.06 5.50659L62.6667 6.17992L59.3333 9.42659L60.12 14.0133L56 11.8466L51.88 14.0133L52.6667 9.42659L49.3333 6.17992L53.94 5.50659L56 1.33325Z" fill="#E4AA3D" stroke="#E4AA3D" stroke-width="1.33333" stroke-linecap="round" stroke-linejoin="round"/>
<path d="M72 1.33325L74.06 5.50659L78.6667 6.17992L75.3333 9.42659L76.12 14.0133L72 11.8466L67.88 14.0133L68.6667 9.42659L65.3333 6.17992L69.94 5.50659L72 1.33325Z" fill="white" stroke="white" stroke-width="1.33333" stroke-linecap="round" stroke-linejoin="round"/>
</svg>
