<svg width="119" height="26" viewBox="0 0 119 26" fill="none" xmlns="http://www.w3.org/2000/svg">
<path fill-rule="evenodd" clip-rule="evenodd" d="M0 26L8.89746 4.92937H0L2.0091 0H25.7357C25.7357 0 29.3539 0.928571 30.7518 3.94643C31.6952 5.98338 31.5833 8.01766 31.0933 9.76208C30.6824 11.2247 27.2572 13.2321 27.2572 13.2321C27.2572 13.2321 31.189 15.2714 31.189 18.5576C31.189 20.599 30.4435 22.4598 29.0842 23.9703C27.9147 25.2697 25.4487 26 25.4487 26H0ZM9.77065 16.4933L22.8809 5.08517L20.4481 11.8505C20.4481 11.8505 20.2504 12.4065 20.4481 12.6464C20.6565 12.8994 20.9869 13.174 21.259 13.177C23.7806 13.205 27.2529 13.2461 27.2529 13.2461L13.555 24.5852L16.123 17.8199C16.123 17.8199 16.3121 17.2028 16.123 16.8913C15.8922 16.511 15.0418 16.4933 15.0418 16.4933H9.77065Z" fill="#00BC74"/>
<path d="M108.538 5.68212H111.425V14.0993L115.561 9.5478H118.795L115.049 13.7252L119 20.2304H115.663L113.001 15.9075L111.425 17.6325V20.2304H108.538V5.68212Z" fill="#00BC74"/>
<path d="M105.941 10.587C106.719 11.3767 107.129 12.6445 107.129 14.4319V20.2304H104.242V14.5981C104.242 12.7692 103.526 11.8339 102.113 11.8339C101.355 11.8339 100.782 12.1041 100.373 12.6029C99.9633 13.1225 99.7586 13.8499 99.7586 14.7644V20.2304H96.8719V9.5478H99.3901L99.6562 10.8779C100.025 10.4207 100.455 10.0674 100.987 9.81798C101.499 9.56858 102.133 9.42309 102.911 9.42309C104.14 9.42309 105.143 9.81798 105.941 10.587Z" fill="#00BC74"/>
<path d="M96.1646 17.7572V20.2304H94.6906C93.3598 20.2304 92.7047 19.6484 92.7456 18.4846C92.3567 19.1081 91.8858 19.5653 91.333 19.8771C90.7598 20.2096 90.0842 20.3551 89.3062 20.3551C88.1188 20.3551 87.177 20.0849 86.4604 19.5445C85.7439 19.0042 85.3958 18.2144 85.3958 17.2168C85.3958 16.0945 85.8053 15.2216 86.6242 14.5981C87.4431 13.9746 88.6511 13.6629 90.2275 13.6629H92.3157V13.1433C92.3157 12.6653 92.1315 12.2912 91.7834 12.0002C91.4149 11.7092 90.944 11.5638 90.3503 11.5638C89.818 11.5638 89.3676 11.6885 89.04 11.9171C88.692 12.1665 88.4873 12.4782 88.4258 12.8731H85.6415C85.7234 11.7924 86.2148 10.9403 87.0746 10.3376C87.9345 9.73484 89.0605 9.42309 90.4936 9.42309C91.9677 9.42309 93.1142 9.75563 93.9331 10.4207C94.752 11.0858 95.1615 12.0626 95.1615 13.3096V17.0713C95.1615 17.3415 95.2024 17.5286 95.3252 17.6117C95.4276 17.7156 95.5914 17.7572 95.8371 17.7572H96.1646ZM92.3157 15.6165H90.207C89.5928 15.6165 89.1219 15.7412 88.7944 15.9906C88.4668 16.24 88.303 16.5725 88.303 17.009C88.303 17.3831 88.4258 17.6948 88.7125 17.9026C88.9991 18.1313 89.3676 18.2352 89.859 18.2352C90.596 18.2352 91.1897 18.0273 91.6401 17.5909C92.07 17.1545 92.2952 16.5725 92.3157 15.8243V15.6165Z" fill="#00BC74"/>
<path d="M78.6503 5.68212C80.3086 5.68212 81.5984 6.01465 82.5197 6.67971C83.4205 7.34478 83.8914 8.30081 83.8914 9.50623C83.8914 10.4207 83.6457 11.1481 83.1544 11.6885C82.663 12.2496 81.9669 12.6029 81.0661 12.7692C82.1307 12.9147 82.9496 13.268 83.5229 13.8084C84.0961 14.3695 84.4032 15.1385 84.4032 16.1361C84.4032 17.4246 83.9119 18.4222 82.9701 19.1496C82.0079 19.8771 80.6567 20.2304 78.9165 20.2304H73.2045V5.68212H78.6503ZM76.2755 11.6677H78.7322C79.3874 11.6677 79.8992 11.5222 80.2677 11.1897C80.6362 10.8779 80.8205 10.4415 80.8205 9.90111C80.8205 9.36075 80.6362 8.94508 80.2677 8.61255C79.8992 8.30081 79.3874 8.13454 78.7322 8.13454H76.2755V11.6677ZM76.2755 17.7572H78.9369C79.674 17.7572 80.2267 17.6117 80.6362 17.2792C81.0457 16.9674 81.2504 16.531 81.2504 15.949C81.2504 15.3671 81.0457 14.9099 80.6362 14.5773C80.2267 14.2448 79.6535 14.0785 78.9369 14.0785H76.2755V17.7572Z" fill="#00BC74"/>
<path d="M68.4904 5.68212H71.3771V20.2304H68.4904V5.68212Z" fill="#00BC74"/>
<path d="M64.0016 5.68212H66.8883V20.2304H64.0016V5.68212Z" fill="#00BC74"/>
<path d="M52.7608 12.021C53.2112 11.1897 53.8254 10.5662 54.6238 10.1089C55.4223 9.65171 56.3436 9.42309 57.4082 9.42309C58.4727 9.42309 59.394 9.65171 60.213 10.0674C61.0319 10.483 61.6665 11.0858 62.1169 11.8547C62.5673 12.6237 62.813 13.5174 62.8335 14.5566C62.8335 14.9306 62.7925 15.2632 62.7516 15.5541H55.1152V15.6373C55.1766 16.427 55.4223 17.0298 55.8522 17.4662C56.2617 17.9234 56.8554 18.1313 57.5924 18.1313C58.1657 18.1313 58.657 18.0066 59.046 17.7572C59.435 17.5078 59.7011 17.1129 59.824 16.6141H62.6697C62.5469 17.3207 62.2807 17.965 61.8713 18.5261C61.4413 19.1081 60.8886 19.5445 60.1925 19.8771C59.4964 20.2096 58.6979 20.3551 57.7971 20.3551C56.6097 20.3551 55.6065 20.1472 54.7467 19.69C53.8868 19.2536 53.2317 18.6301 52.7813 17.7987C52.3309 16.9674 52.1057 16.0114 52.1057 14.9099C52.1057 13.8084 52.3104 12.8523 52.7608 12.021ZM59.9468 13.6421C59.8444 12.9978 59.5783 12.499 59.1484 12.1457C58.7184 11.7924 58.1861 11.6053 57.531 11.6053C56.8963 11.6053 56.364 11.7924 55.9341 12.1665C55.5042 12.5406 55.2585 13.0186 55.1766 13.6421H59.9468Z" fill="#00BC74"/>
<path d="M45.3601 5.68212C47.0184 5.68212 48.3082 6.01465 49.2295 6.67971C50.1303 7.34478 50.6012 8.30081 50.6012 9.50623C50.6012 10.4207 50.3555 11.1481 49.8642 11.6885C49.3728 12.2496 48.6767 12.6029 47.7759 12.7692C48.8405 12.9147 49.6595 13.268 50.2327 13.8084C50.8059 14.3695 51.113 15.1385 51.113 16.1361C51.113 17.4246 50.6217 18.4222 49.6799 19.1496C48.7177 19.8771 47.3665 20.2304 45.6263 20.2304H39.9143V5.68212H45.3601ZM42.9853 11.6677H45.442C46.0972 11.6677 46.609 11.5222 46.9775 11.1897C47.346 10.8779 47.5303 10.4415 47.5303 9.90111C47.5303 9.36075 47.346 8.94508 46.9775 8.61255C46.609 8.30081 46.0972 8.13454 45.442 8.13454H42.9853V11.6677ZM42.9853 17.7572H45.6468C46.3838 17.7572 46.9366 17.6117 47.346 17.2792C47.7555 16.9674 47.9602 16.531 47.9602 15.949C47.9602 15.3671 47.7555 14.9099 47.346 14.5773C46.9366 14.2448 46.3633 14.0785 45.6468 14.0785H42.9853V17.7572Z" fill="#00BC74"/>
</svg>
