<svg width="1092" height="235" viewBox="0 0 1092 235" fill="none" xmlns="http://www.w3.org/2000/svg">
<path fill-rule="evenodd" clip-rule="evenodd" d="M0 235L81.6473 44.5539H0L18.4365 0H236.163C236.163 0 269.366 8.39286 282.193 35.6696C290.85 54.0806 289.824 72.4673 285.327 88.2342C281.556 101.454 250.125 119.598 250.125 119.598C250.125 119.598 286.205 138.03 286.205 167.732C286.205 186.184 279.364 203.002 266.89 216.654C256.158 228.4 233.529 235 233.529 235H0ZM89.6601 149.074L209.966 45.9621L187.641 107.11C187.641 107.11 185.827 112.135 187.641 114.304C189.554 116.591 192.586 119.073 195.083 119.1C218.222 119.353 250.085 119.724 250.085 119.724L124.387 222.212L147.952 161.064C147.952 161.064 149.688 155.487 147.952 152.671C145.835 149.234 138.03 149.074 138.03 149.074H89.6601Z" fill="#00BC74"/>
<path d="M995.999 51.3576H1022.49V127.436L1060.44 86.2974H1090.12L1055.74 124.055L1092 182.851H1061.38L1036.95 143.779L1022.49 159.37V182.851H995.999V51.3576Z" fill="#00BC74"/>
<path d="M972.168 95.6898C979.307 102.828 983.065 114.287 983.065 130.442V182.851H956.575V131.945C956.575 115.414 950 106.961 937.037 106.961C930.086 106.961 924.825 109.403 921.068 113.911C917.311 118.607 915.432 125.182 915.432 133.447V182.851H888.942V86.2974H912.05L914.492 98.3197C917.874 94.187 921.819 90.9936 926.704 88.7394C931.401 86.4852 937.225 85.1703 944.364 85.1703C955.636 85.1703 964.842 88.7394 972.168 95.6898Z" fill="#00BC74"/>
<path d="M882.452 160.497V182.851H868.925C856.714 182.851 850.702 177.592 851.078 167.072C847.508 172.708 843.187 176.84 838.115 179.658C832.854 182.664 826.655 183.979 819.516 183.979C808.619 183.979 799.977 181.536 793.402 176.652C786.826 171.768 783.633 164.63 783.633 155.613C783.633 145.47 787.39 137.58 794.905 131.945C802.419 126.309 813.504 123.491 827.97 123.491H847.132V118.795C847.132 114.475 845.442 111.093 842.248 108.463C838.866 105.834 834.545 104.519 829.097 104.519C824.212 104.519 820.079 105.646 817.073 107.712C813.88 109.966 812.001 112.784 811.437 116.353H785.887C786.638 106.585 791.147 98.8832 799.038 93.4356C806.928 87.988 817.261 85.1703 830.412 85.1703C843.939 85.1703 854.459 88.1759 861.974 94.187C869.489 100.198 873.246 109.027 873.246 120.298V154.298C873.246 156.74 873.622 158.431 874.749 159.183C875.689 160.122 877.192 160.497 879.446 160.497H882.452ZM847.132 141.149H827.782C822.146 141.149 817.825 142.276 814.819 144.53C811.813 146.785 810.31 149.79 810.31 153.735C810.31 157.116 811.437 159.934 814.067 161.812C816.698 163.879 820.079 164.818 824.588 164.818C831.351 164.818 836.8 162.939 840.933 158.995C844.878 155.05 846.945 149.79 847.132 143.028V141.149Z" fill="#00BC74"/>
<path d="M721.732 51.3576C736.95 51.3576 748.786 54.3632 757.24 60.3743C765.506 66.3855 769.827 75.0265 769.827 85.9217C769.827 94.187 767.573 100.762 763.064 105.646C758.555 110.718 752.167 113.911 743.901 115.414C753.67 116.729 761.185 119.922 766.445 124.806C771.706 129.878 774.524 136.829 774.524 145.845C774.524 157.492 770.015 166.509 761.373 173.083C752.543 179.658 740.144 182.851 724.175 182.851H671.759V51.3576H721.732ZM699.94 105.458H722.484C728.496 105.458 733.192 104.143 736.574 101.137C739.956 98.3197 741.647 94.3749 741.647 89.4908C741.647 84.6068 739.956 80.8498 736.574 77.8442C733.192 75.0265 728.496 73.5237 722.484 73.5237H699.94V105.458ZM699.94 160.497H724.363C731.126 160.497 736.198 159.183 739.956 156.177C743.713 153.359 745.592 149.414 745.592 144.155C745.592 138.895 743.713 134.762 739.956 131.757C736.198 128.751 730.938 127.248 724.363 127.248H699.94V160.497Z" fill="#00BC74"/>
<path d="M628.5 51.3576H654.99V182.851H628.5V51.3576Z" fill="#00BC74"/>
<path d="M587.309 51.3576H613.798V182.851H587.309V51.3576Z" fill="#00BC74"/>
<path d="M484.158 108.651C488.291 101.137 493.927 95.5019 501.254 91.3693C508.581 87.2366 517.035 85.1703 526.804 85.1703C536.573 85.1703 545.028 87.2366 552.542 90.9936C560.057 94.7505 565.881 100.198 570.014 107.149C574.147 114.099 576.402 122.176 576.59 131.569C576.59 134.95 576.214 137.956 575.838 140.586H505.763V141.337C506.327 148.475 508.581 153.923 512.526 157.868C516.284 162 521.732 163.879 528.495 163.879C533.755 163.879 538.264 162.752 541.834 160.497C545.403 158.243 547.846 154.674 548.973 150.166H575.087C573.96 156.553 571.517 162.376 567.76 167.448C563.815 172.708 558.742 176.652 552.355 179.658C545.967 182.664 538.64 183.979 530.374 183.979C519.477 183.979 510.272 182.1 502.381 177.967C494.491 174.023 488.479 168.387 484.346 160.873C480.213 153.359 478.146 144.718 478.146 134.762C478.146 124.806 480.025 116.165 484.158 108.651ZM550.1 123.303C549.161 117.48 546.718 112.972 542.773 109.778C538.828 106.585 533.943 104.894 527.931 104.894C522.108 104.894 517.223 106.585 513.278 109.966C509.332 113.348 507.078 117.668 506.326 123.303H550.1Z" fill="#00BC74"/>
<path d="M416.246 51.3576C431.463 51.3576 443.299 54.3632 451.753 60.3743C460.02 66.3855 464.341 75.0265 464.341 85.9217C464.341 94.187 462.086 100.762 457.577 105.646C453.068 110.718 446.681 113.911 438.415 115.414C448.184 116.729 455.699 119.922 460.959 124.806C466.219 129.878 469.037 136.829 469.037 145.845C469.037 157.492 464.528 166.509 455.886 173.083C447.057 179.658 434.657 182.851 418.688 182.851H366.273V51.3576H416.246ZM394.453 105.458H416.997C423.009 105.458 427.706 104.143 431.088 101.137C434.469 98.3197 436.16 94.3749 436.16 89.4908C436.16 84.6068 434.469 80.8498 431.088 77.8442C427.706 75.0265 423.009 73.5237 416.997 73.5237H394.453V105.458ZM394.453 160.497H418.876C425.639 160.497 430.712 159.183 434.469 156.177C438.227 153.359 440.105 149.414 440.105 144.155C440.105 138.895 438.227 134.762 434.469 131.757C430.712 128.751 425.452 127.248 418.876 127.248H394.453V160.497Z" fill="#00BC74"/>
</svg>
