<svg width="40" height="40" viewBox="0 0 40 40" fill="none" xmlns="http://www.w3.org/2000/svg">
<path d="M0 15C0 10.3406 0 8.01088 0.761205 6.17317C1.77614 3.72288 3.72288 1.77614 6.17317 0.761205C8.01088 0 10.3406 0 15 0H25C29.6594 0 31.9891 0 33.8268 0.761205C36.2771 1.77614 38.2239 3.72288 39.2388 6.17317C40 8.01088 40 10.3406 40 15V25C40 29.6594 40 31.9891 39.2388 33.8268C38.2239 36.2771 36.2771 38.2239 33.8268 39.2388C31.9891 40 29.6594 40 25 40H15C10.3406 40 8.01088 40 6.17317 39.2388C3.72288 38.2239 1.77614 36.2771 0.761205 33.8268C0 31.9891 0 29.6594 0 25V15Z" fill="#F7F7F7"/>
<path d="M30.8327 20C30.8327 25.98 25.9793 30.8334 19.9993 30.8334C14.0193 30.8334 9.16602 25.98 9.16602 20C9.16602 14.02 14.0193 9.16669 19.9993 9.16669" stroke="#E4AA3D" stroke-width="1.5" stroke-linecap="round" stroke-linejoin="round"/>
<path d="M25.416 10.25V14.5833H29.7493" stroke="#E4AA3D" stroke-width="1.5" stroke-linecap="round" stroke-linejoin="round"/>
<path d="M30.8327 9.16669L25.416 14.5834" stroke="#E4AA3D" stroke-width="1.5" stroke-linecap="round" stroke-linejoin="round"/>
<path d="M25.1 19.3088V19.2088H25H24.0804V15.6565V15.5565H23.9804H22.7843H22.6843V15.6565V19.2088H19.7958L17.2781 15.5993L17.2483 15.5565H17.1961H16.0196H15.9196V15.6565V19.2088H15H14.9V19.3088V20.2854V20.3854H15H15.9196V21.3182H15H14.9V21.4182V22.3948V22.4948H15H15.9196V25.6565V25.7565H16.0196H17.2353H17.3353V25.6565V22.4948H20.4791L22.7219 25.7137L22.7517 25.7565H22.8039H23.9804H24.0804V25.6565V22.4948H25H25.1V22.3948V21.4182V21.3182H25H24.0804V20.3854H25H25.1V20.2854V19.3088ZM18.1896 19.2088H17.3353V17.9827L18.1896 19.2088ZM22.6843 22.4948V23.35L22.0878 22.4948H22.6843ZM22.6843 20.3854V21.3182H21.2671L20.6165 20.3854H22.6843ZM17.3353 21.3182V20.3854H19.0094L19.6593 21.3182H17.3353Z" fill="#E4AA3D" stroke="#E4AA3D" stroke-width="0.2"/>
</svg>
